<svg id="bb641806-bb44-40ae-bdb7-b297e37bf69b" data-name="Layer 1" xmlns="http://www.w3.org/2000/svg" viewBox="0 0 502 325">
  <defs>
    <style>
      .e5abb381-d9fe-4384-8182-f8914aba708c {
        fill: none;
        stroke: #fff;
        stroke-miterlimit: 10;
      }

      .fc596bcd-7f5b-4ab5-a420-dc4d63fdd105 {
        fill: #9ed442;
      }

      .bf9ade47-6cdf-4551-bb99-e207d2eeffdf {
        font-size: 8.33px;
      }

      .a2b89823-8548-4efc-aa3e-a78a7dedc922, .b334e75e-9e3a-4ee7-8516-795d021cb320, .bf9ade47-6cdf-4551-bb99-e207d2eeffdf {
        fill: #fff;
      }

      .b334e75e-9e3a-4ee7-8516-795d021cb320, .bf9ade47-6cdf-4551-bb99-e207d2eeffdf {
        font-family: PingFangTC-Semibold-B5pc-H, PingFang TC;
      }

      .a392347b-f3a3-499d-8ceb-0c28ddb01038 {
        fill: #4383dd;
      }

      .a5b9f31f-7dd0-4947-a929-ea08587abbd6 {
        fill: #43d1a1;
      }

      .eb012276-c417-41db-a075-23bce3ce65bf, .f7c18f98-61be-4888-80c2-346674251659 {
        fill: #30d1ff;
      }

      .eb012276-c417-41db-a075-23bce3ce65bf {
        opacity: 0.25;
      }

      .a646d246-da9d-42c5-b121-8fa1606f1547 {
        fill: #26b7f0;
      }

      .b04b57a5-2469-4a3f-8725-20ee734120b1 {
        fill: #009edd;
      }

      .b389200a-11f7-4af1-adb2-87d11e746504 {
        fill: #0586ca;
      }

      .f000432f-1927-4529-93cd-8c8c6845fb1b {
        fill: #fdbf2e;
      }

      .b334e75e-9e3a-4ee7-8516-795d021cb320 {
        font-size: 7px;
      }
    </style>
  </defs>
  <title>miqvm</title>
  <g>
    <path class="e5abb381-d9fe-4384-8182-f8914aba708c" d="M72,71.51h9a5,5,0,0,1,5,5v83a5,5,0,0,1-5,5H72"/>
    <path class="e5abb381-d9fe-4384-8182-f8914aba708c" d="M172.5,117h8a5,5,0,0,1,5,5V248a5,5,0,0,1-5,5h-9.07"/>
    <path class="e5abb381-d9fe-4384-8182-f8914aba708c" d="M377.77,163H384a5,5,0,0,0,5-5V135.51a5,5,0,0,0-5-5h-6.23"/>
    <path class="e5abb381-d9fe-4384-8182-f8914aba708c" d="M422.5,36h-5a5,5,0,0,0-5,5v76a5,5,0,0,0,5,5h5"/>
    <path class="e5abb381-d9fe-4384-8182-f8914aba708c" d="M422.5,204H418a4.78,4.78,0,0,0-4.5,5v76a4.78,4.78,0,0,0,4.5,5h4.5"/>
    <line class="e5abb381-d9fe-4384-8182-f8914aba708c" x1="70.5" y1="253.01" x2="96" y2="253.01"/>
    <line class="e5abb381-d9fe-4384-8182-f8914aba708c" x1="96" y1="117.01" x2="86.4" y2="117.01"/>
    <line class="e5abb381-d9fe-4384-8182-f8914aba708c" x1="185.12" y1="164.3" x2="201.73" y2="164.3"/>
    <path class="e5abb381-d9fe-4384-8182-f8914aba708c" d="M413.5,247h-7a5,5,0,0,1-5-5V201a5,5,0,0,0-5-5h-19"/>
    <path class="e5abb381-d9fe-4384-8182-f8914aba708c" d="M389.06,148.16h6.44a5,5,0,0,0,5-5V84a5,5,0,0,1,5-5h7.21"/>
    <g>
      <circle class="fc596bcd-7f5b-4ab5-a420-dc4d63fdd105" cx="136.5" cy="117.25" r="31"/>
      <text class="bf9ade47-6cdf-4551-bb99-e207d2eeffdf" transform="translate(128.03 136.83)">FDC</text>
      <path class="fc596bcd-7f5b-4ab5-a420-dc4d63fdd105" d="M136.5,153.67a36.42,36.42,0,1,1,36.42-36.42A36.46,36.46,0,0,1,136.5,153.67Zm0-70a33.58,33.58,0,1,0,33.58,33.58A33.61,33.61,0,0,0,136.5,83.67Z"/>
      <g>
        <path class="a2b89823-8548-4efc-aa3e-a78a7dedc922" d="M152.06,119.77l-.06.13a2,2,0,0,1-2,1.51c-3.24,0-6.47,0-9.7,0h-.43l.34,3.83h1.58a.47.47,0,0,1,.49.29.45.45,0,0,1-.36.61,1.22,1.22,0,0,1-.27,0H131.14a.46.46,0,1,1,0-.91h1.63l.34-3.83h-3.58a2.43,2.43,0,0,1-.27,0,.44.44,0,0,1-.38-.45.44.44,0,0,1,.37-.45,1.82,1.82,0,0,1,.33,0h20.22c1,0,1.34-.38,1.34-1.34v-1.63H121.87c0,.69,0,1.39,0,2.08a1,1,0,0,0,1.1.89c1.31,0,2.61,0,3.92,0h.24a.46.46,0,0,1,.48.45.45.45,0,0,1-.46.46c-.12,0-.25,0-.37,0-1.24,0-2.49,0-3.74,0a2,2,0,0,1-2.11-2.11V101.52a2,2,0,0,1,2.14-2.15h13.28l-.55-.56a.78.78,0,0,1,0-1.23l.93-.92a.74.74,0,0,1,1.17,0,.9.9,0,0,0,1.35.27c.52-.29.57-.23.55-.85a.94.94,0,0,1,.6-1h1.82c.84.32.54,1.07.62,1.68a1.94,1.94,0,0,1,.54.2c.55.39.95.25,1.35-.26a.72.72,0,0,1,1.14,0c.33.31.65.64,1,1a.78.78,0,0,1,0,1.19l-.57.58h3.69a2,2,0,0,1,1.73.83,4.11,4.11,0,0,1,.39.85Zm-9.25-12.09c0,.26,0,.55,0,.84a.76.76,0,0,1-.81.8c-.47,0-.93,0-1.4,0a.77.77,0,0,1-.81-.77v-.31c0-.58,0-.52-.53-.8a.93.93,0,0,0-1.39.27.71.71,0,0,1-1.12,0q-.5-.48-1-1a.76.76,0,0,1,0-1.16c.2-.2.42-.38.62-.56l-.23-.46c-.12-.28-.15-.68-.36-.82s-.6,0-.91-.07a.72.72,0,0,1-.72-.69c0-.18,0-.38,0-.6h-9.91c-.46,0-.48,0-.48.48v13.38c0,.1,0,.21,0,.32h25.49V103.07c0-.73,0-.73-.72-.68,0,0,0,0-.08,0s0,.29,0,.44a.77.77,0,0,1-.83.81c-.22,0-.45,0-.67,0a.28.28,0,0,0-.22.14c-.17.38-.31.76-.48,1.19.19.18.41.38.61.59a.75.75,0,0,1,0,1.11c-.33.35-.67.68-1,1a.76.76,0,0,1-1.14,0c-.16-.16-.32-.34-.5-.49a.28.28,0,0,0-.25,0Zm-7.72-4.91h.76a.82.82,0,0,1,.87.65,12,12,0,0,0,.46,1.12.8.8,0,0,1-.17,1.09c-.18.17-.39.32-.53.43l.88.93c.17-.18.34-.37.52-.55a.8.8,0,0,1,1.05-.15c.37.17.75.33,1.14.47a.8.8,0,0,1,.63.85c0,.26,0,.52,0,.77h1.2v-.78a.8.8,0,0,1,.61-.83c.4-.15.8-.31,1.18-.49a.8.8,0,0,1,1,.17l.49.51.89-.85c-.17-.16-.37-.33-.54-.51a.79.79,0,0,1-.16-1,9.85,9.85,0,0,0,.47-1.12.83.83,0,0,1,.92-.67h.72v-1.18h-.75a.82.82,0,0,1-.88-.64c-.14-.39-.31-.79-.49-1.17a.81.81,0,0,1,.16-1c.19-.19.38-.36.55-.52l-.87-.89-.49.54a.81.81,0,0,1-1.09.17,9.56,9.56,0,0,0-1.15-.47.8.8,0,0,1-.61-.83V96h-1.2c0,.28,0,.54,0,.8a.77.77,0,0,1-.59.82q-.62.24-1.23.51a.78.78,0,0,1-1-.15c-.19-.19-.37-.4-.54-.59l-.89.87c.2.19.4.37.59.57a.79.79,0,0,1,.14,1q-.27.61-.51,1.23a.8.8,0,0,1-.81.6h-.8Zm.84-2.47-.25,0H123.1a1.11,1.11,0,0,0-1.25,1.26v15h1v-.4q0-6.7,0-13.41a1.15,1.15,0,0,1,1.29-1.29h10c.25-.7.38-.79,1.11-.79a2.62,2.62,0,0,1,.28,0C135.76,100.71,135.93,100.63,135.93,100.3Zm3,21.13H134l-.34,3.79h5.6Zm12.19-4.86v-15a1.12,1.12,0,0,0-1.25-1.25h-3l-.27,0c0,.3.12.41.41.38a3.17,3.17,0,0,1,.69,0c.44.06.62.37.69.78.19,0,.36,0,.54,0a1.65,1.65,0,0,1,.32,0,1.18,1.18,0,0,1,.84,1.26v13.8Z"/>
        <path class="a2b89823-8548-4efc-aa3e-a78a7dedc922" d="M136.51,118.55h1a.45.45,0,0,1,.48.44.46.46,0,0,1-.48.47h-2a.46.46,0,0,1-.5-.46c0-.27.19-.44.5-.45Z"/>
        <path class="a2b89823-8548-4efc-aa3e-a78a7dedc922" d="M128.08,113.81a4.4,4.4,0,0,1-.4.46.67.67,0,0,1-1,0c-.28-.25-.54-.52-.8-.79a.69.69,0,0,1,0-1,4.83,4.83,0,0,1,.42-.37c-.12-.29-.21-.54-.32-.78a.32.32,0,0,0-.2-.13,1,1,0,0,0-.24,0c-.68,0-.91-.23-.92-.91,0-.29,0-.58,0-.88a.68.68,0,0,1,.75-.73.62.62,0,0,0,.76-.5.52.52,0,0,0-.15-.68c-.46-.43-.45-.79,0-1.24l.65-.64a.66.66,0,0,1,1,0,.65.65,0,0,0,.94.18c.25-.12.36-.23.35-.52,0-.72.22-.93.94-.93.28,0,.55,0,.82,0a.67.67,0,0,1,.74.74c0,.45.12.64.54.79a.48.48,0,0,0,.62-.13c.48-.5.81-.5,1.3,0,.2.2.41.39.6.6a.66.66,0,0,1,0,1,.64.64,0,0,0-.19.92c.13.27.24.37.55.36.67,0,.91.23.91.9,0,.29,0,.57,0,.85,0,.48-.27.8-.75.76s-.63.12-.77.53a.5.5,0,0,0,.13.64c.5.46.49.79,0,1.28-.2.21-.41.42-.62.62a.66.66,0,0,1-1,0,.62.62,0,0,0-.94-.17,2.32,2.32,0,0,1-.35.14c0,.19,0,.37,0,.55a.7.7,0,0,1-.74.75c-.35,0-.7,0-1.06,0s-.74-.28-.7-.71a.65.65,0,0,0-.58-.82A1.63,1.63,0,0,1,128.08,113.81Zm5.72-.88c-.11-.09-.22-.18-.32-.28a.74.74,0,0,1-.15-1,5.81,5.81,0,0,0,.32-.78.73.73,0,0,1,.81-.59h.44v-.7h-.43a.74.74,0,0,1-.82-.61c-.1-.28-.23-.56-.35-.83a.71.71,0,0,1,.13-.89,3.65,3.65,0,0,1,.43-.31l-.58-.58c-.1.12-.18.23-.28.33a.74.74,0,0,1-1,.15,5.68,5.68,0,0,0-.81-.32.73.73,0,0,1-.55-.75v-.51h-.69v.49a.74.74,0,0,1-.58.76,8.58,8.58,0,0,0-.83.35.73.73,0,0,1-1-.15,2.26,2.26,0,0,1-.27-.36l-.56.57a4.38,4.38,0,0,1,.34.29.71.71,0,0,1,.14,1q-.19.42-.36.87a.7.7,0,0,1-.72.53h-.5v.7h.44a.72.72,0,0,1,.8.59,7,7,0,0,0,.34.81.72.72,0,0,1-.16,1,2.12,2.12,0,0,1-.31.21l.5.62.29-.32a.72.72,0,0,1,1-.15,8.18,8.18,0,0,0,.82.32.73.73,0,0,1,.55.72v.52h.62c.08-.33.06-.72.24-.95s.58-.28.86-.45c.65-.42,1.21-.42,1.66.31Z"/>
        <path class="a2b89823-8548-4efc-aa3e-a78a7dedc922" d="M137.77,102.29a3.58,3.58,0,0,1,.52-2c.2-.32.44-.41.7-.26s.27.41.08.72a2.64,2.64,0,1,0,2.63-1.19,3.9,3.9,0,0,0-1,0c-.36,0-.6,0-.66-.32s.09-.5.46-.58a3.54,3.54,0,1,1-2.71,3.55Z"/>
        <path class="a2b89823-8548-4efc-aa3e-a78a7dedc922" d="M143.14,102.19a1.84,1.84,0,1,1-3.67,0,1.84,1.84,0,0,1,3.67,0Zm-.92,0a.92.92,0,0,0-.88-1,.93.93,0,0,0-.07,1.86A.93.93,0,0,0,142.22,102.21Z"/>
        <path class="a2b89823-8548-4efc-aa3e-a78a7dedc922" d="M127.84,109.93a2.42,2.42,0,1,1,2.43,2.41A2.42,2.42,0,0,1,127.84,109.93Zm3.92,0a1.53,1.53,0,0,0-1.5-1.52,1.51,1.51,0,1,0,1.5,1.52Z"/>
      </g>
    </g>
    <g>
      <circle class="a392347b-f3a3-499d-8ceb-0c28ddb01038" cx="465.5" cy="36.5" r="31"/>
      <text class="bf9ade47-6cdf-4551-bb99-e207d2eeffdf" transform="translate(456.9 56.08)">APC</text>
      <path class="a392347b-f3a3-499d-8ceb-0c28ddb01038" d="M465.5,72.92A36.42,36.42,0,1,1,501.92,36.5,36.46,36.46,0,0,1,465.5,72.92Zm0-70A33.58,33.58,0,1,0,499.08,36.5,33.61,33.61,0,0,0,465.5,2.92Z"/>
      <g>
        <path class="a2b89823-8548-4efc-aa3e-a78a7dedc922" d="M481.06,39l-.06.13a2,2,0,0,1-2,1.51c-3.24,0-6.47,0-9.7,0h-.43l.34,3.83h1.58a.47.47,0,0,1,.49.29.45.45,0,0,1-.36.61,1.22,1.22,0,0,1-.27,0H460.14a.46.46,0,1,1,0-.91h1.63l.34-3.83h-3.58a2.43,2.43,0,0,1-.27,0,.44.44,0,0,1-.38-.45.44.44,0,0,1,.37-.45,1.82,1.82,0,0,1,.33,0h20.22c1,0,1.34-.38,1.34-1.34V36.78H450.87c0,.69,0,1.39,0,2.08a1,1,0,0,0,1.1.89h4.16a.46.46,0,0,1,.48.45.45.45,0,0,1-.46.46c-.12,0-.25,0-.37,0-1.24,0-2.49,0-3.74,0a2,2,0,0,1-2.11-2.11V20.77a2,2,0,0,1,2.14-2.15h13.28l-.55-.56a.78.78,0,0,1,0-1.23l.93-.92a.74.74,0,0,1,1.17,0,.9.9,0,0,0,1.35.27c.52-.29.57-.23.55-.85a.94.94,0,0,1,.6-1h1.82c.84.32.54,1.07.62,1.68a1.94,1.94,0,0,1,.54.2c.55.39.95.25,1.35-.26a.72.72,0,0,1,1.14,0c.33.31.65.64,1,1a.78.78,0,0,1,0,1.19l-.57.58h3.69a2,2,0,0,1,1.73.83,4.11,4.11,0,0,1,.39.85Zm-9.25-12.09c0,.26,0,.55,0,.84a.76.76,0,0,1-.81.8h-1.4a.77.77,0,0,1-.81-.77v-.31c0-.58,0-.52-.53-.8a.93.93,0,0,0-1.39.27.71.71,0,0,1-1.12,0q-.5-.48-1-1a.76.76,0,0,1,0-1.16c.2-.2.42-.38.62-.56l-.23-.46c-.12-.28-.15-.68-.36-.82s-.6,0-.91-.07a.72.72,0,0,1-.72-.69c0-.18,0-.38,0-.6h-9.91c-.46,0-.48,0-.48.48V35.49c0,.1,0,.21,0,.32h25.49V22.32c0-.73,0-.73-.72-.68l-.08,0c0,.14,0,.29,0,.44a.77.77,0,0,1-.83.81c-.22,0-.45,0-.67,0a.28.28,0,0,0-.22.14c-.17.38-.31.76-.48,1.19.19.18.41.38.61.59a.75.75,0,0,1,0,1.11c-.33.35-.67.68-1,1a.76.76,0,0,1-1.14,0c-.16-.16-.32-.34-.5-.49a.28.28,0,0,0-.25,0ZM464.09,22h.76a.82.82,0,0,1,.87.65,12,12,0,0,0,.46,1.12.8.8,0,0,1-.17,1.09c-.18.17-.39.32-.53.43l.88.93c.17-.18.34-.37.52-.55a.8.8,0,0,1,1.05-.15c.37.17.75.33,1.14.47a.8.8,0,0,1,.63.85c0,.26,0,.52,0,.77h1.2v-.78a.8.8,0,0,1,.61-.83c.4-.15.8-.31,1.18-.49a.8.8,0,0,1,1,.17l.49.51.89-.85c-.17-.16-.37-.33-.54-.51a.79.79,0,0,1-.16-1,9.85,9.85,0,0,0,.47-1.12.83.83,0,0,1,.92-.67h.72V20.84h-.75a.82.82,0,0,1-.88-.64c-.14-.39-.31-.79-.49-1.17a.81.81,0,0,1,.16-1c.19-.19.38-.36.55-.52l-.87-.89-.49.54a.81.81,0,0,1-1.09.17,9.56,9.56,0,0,0-1.15-.47.8.8,0,0,1-.61-.83v-.8h-1.2c0,.28,0,.54,0,.8a.77.77,0,0,1-.59.82q-.62.24-1.23.51a.78.78,0,0,1-1-.15c-.19-.19-.37-.4-.54-.59l-.89.87c.2.19.4.37.59.57a.79.79,0,0,1,.14,1q-.27.61-.51,1.23a.8.8,0,0,1-.81.6h-.8Zm.84-2.47-.25,0H452.1a1.11,1.11,0,0,0-1.25,1.26v15h1v-.4q0-6.71,0-13.41a1.15,1.15,0,0,1,1.29-1.29h10c.25-.7.38-.79,1.11-.79h.28C464.76,20,464.93,19.88,464.93,19.55Zm3,21.13H463l-.34,3.79h5.6Zm12.19-4.86v-15a1.12,1.12,0,0,0-1.25-1.25H476l-.27,0c0,.3.12.41.41.38a3.17,3.17,0,0,1,.69,0c.44.06.62.37.69.78H478a1.65,1.65,0,0,1,.32,0,1.18,1.18,0,0,1,.84,1.26v13.8Z"/>
        <path class="a2b89823-8548-4efc-aa3e-a78a7dedc922" d="M465.51,37.8h1a.45.45,0,0,1,.48.44.46.46,0,0,1-.48.47h-2a.46.46,0,0,1-.5-.46c0-.27.19-.44.5-.45Z"/>
        <path class="a2b89823-8548-4efc-aa3e-a78a7dedc922" d="M457.08,33.06a4.4,4.4,0,0,1-.4.46.67.67,0,0,1-1,0c-.28-.25-.54-.52-.8-.79a.69.69,0,0,1,0-1,4.83,4.83,0,0,1,.42-.37c-.12-.29-.21-.54-.32-.78a.32.32,0,0,0-.2-.13,1,1,0,0,0-.24,0c-.68,0-.91-.23-.92-.91,0-.29,0-.58,0-.88a.68.68,0,0,1,.75-.73.62.62,0,0,0,.76-.5.52.52,0,0,0-.15-.68c-.46-.43-.45-.79,0-1.24l.65-.64a.66.66,0,0,1,1,0,.65.65,0,0,0,.94.18c.25-.12.36-.23.35-.52,0-.72.22-.93.94-.93.28,0,.55,0,.82,0a.67.67,0,0,1,.74.74c0,.45.12.64.54.79a.48.48,0,0,0,.62-.13c.48-.5.81-.5,1.3,0,.2.2.41.39.6.6a.66.66,0,0,1,0,1,.64.64,0,0,0-.19.92c.13.27.24.37.55.36.67,0,.91.23.91.9,0,.29,0,.57,0,.85,0,.48-.27.8-.75.76s-.63.12-.77.53a.5.5,0,0,0,.13.64c.5.46.49.79,0,1.28-.2.21-.41.42-.62.62a.66.66,0,0,1-1,0,.62.62,0,0,0-.94-.17,2.32,2.32,0,0,1-.35.14c0,.19,0,.37,0,.55a.7.7,0,0,1-.74.75h-1.06c-.43,0-.74-.28-.7-.71a.65.65,0,0,0-.58-.82A1.63,1.63,0,0,1,457.08,33.06Zm5.72-.88c-.11-.09-.22-.18-.32-.28a.74.74,0,0,1-.15-1,5.81,5.81,0,0,0,.32-.78.73.73,0,0,1,.81-.59h.44v-.7h-.43a.74.74,0,0,1-.82-.61c-.1-.28-.23-.56-.35-.83a.71.71,0,0,1,.13-.89,3.65,3.65,0,0,1,.43-.31l-.58-.58c-.1.12-.18.23-.28.33a.74.74,0,0,1-1,.15,5.68,5.68,0,0,0-.81-.32.73.73,0,0,1-.55-.75V24.5h-.69V25a.74.74,0,0,1-.58.76,8.58,8.58,0,0,0-.83.35.73.73,0,0,1-1-.15,2.26,2.26,0,0,1-.27-.36l-.56.57a4.38,4.38,0,0,1,.34.29.71.71,0,0,1,.14,1q-.19.42-.36.87a.7.7,0,0,1-.72.53h-.5v.7h.44a.72.72,0,0,1,.8.59,7,7,0,0,0,.34.81.72.72,0,0,1-.16,1,2.12,2.12,0,0,1-.31.21l.5.62.29-.32a.72.72,0,0,1,1-.15,8.18,8.18,0,0,0,.82.32.73.73,0,0,1,.55.72v.52h.62c.08-.33.06-.72.24-1s.58-.28.86-.45c.65-.42,1.21-.42,1.66.31Z"/>
        <path class="a2b89823-8548-4efc-aa3e-a78a7dedc922" d="M466.77,21.54a3.58,3.58,0,0,1,.52-2c.2-.32.44-.41.7-.26s.27.41.08.72a2.64,2.64,0,1,0,2.63-1.19,3.9,3.9,0,0,0-1,0c-.36.05-.6,0-.66-.32s.09-.5.46-.58a3.54,3.54,0,1,1-2.71,3.55Z"/>
        <path class="a2b89823-8548-4efc-aa3e-a78a7dedc922" d="M472.14,21.44a1.84,1.84,0,1,1-3.67,0,1.84,1.84,0,0,1,3.67,0Zm-.92,0a.92.92,0,0,0-.88-1,.93.93,0,0,0-.07,1.86A.93.93,0,0,0,471.22,21.46Z"/>
        <path class="a2b89823-8548-4efc-aa3e-a78a7dedc922" d="M456.84,29.18a2.42,2.42,0,1,1,2.43,2.41A2.42,2.42,0,0,1,456.84,29.18Zm3.92,0a1.53,1.53,0,0,0-1.5-1.52,1.51,1.51,0,1,0,1.5,1.52Z"/>
      </g>
      <circle class="a392347b-f3a3-499d-8ceb-0c28ddb01038" cx="465.5" cy="120.5" r="31"/>
      <text class="bf9ade47-6cdf-4551-bb99-e207d2eeffdf" transform="translate(457.01 140.08)">SPC</text>
      <path class="a392347b-f3a3-499d-8ceb-0c28ddb01038" d="M465.5,156.92a36.42,36.42,0,1,1,36.42-36.42A36.46,36.46,0,0,1,465.5,156.92Zm0-70a33.58,33.58,0,1,0,33.58,33.58A33.61,33.61,0,0,0,465.5,86.92Z"/>
      <g>
        <path class="a2b89823-8548-4efc-aa3e-a78a7dedc922" d="M481.06,123l-.06.13a2,2,0,0,1-2,1.51c-3.24,0-6.47,0-9.7,0h-.43l.34,3.83h1.58a.47.47,0,0,1,.49.29.45.45,0,0,1-.36.61,1.22,1.22,0,0,1-.27,0H460.14a.46.46,0,1,1,0-.91h1.63l.34-3.83h-3.58a2.43,2.43,0,0,1-.27,0,.44.44,0,0,1-.38-.45.44.44,0,0,1,.37-.45,1.82,1.82,0,0,1,.33,0h20.22c1,0,1.34-.38,1.34-1.34v-1.63H450.87c0,.69,0,1.39,0,2.08a1,1,0,0,0,1.1.89c1.31,0,2.61,0,3.92,0h.24a.46.46,0,0,1,.48.45.45.45,0,0,1-.46.46c-.12,0-.25,0-.37,0-1.24,0-2.49,0-3.74,0a2,2,0,0,1-2.11-2.11V104.77a2,2,0,0,1,2.14-2.15h13.28l-.55-.56a.78.78,0,0,1,0-1.23l.93-.92a.74.74,0,0,1,1.17,0,.9.9,0,0,0,1.35.27c.52-.29.57-.23.55-.85a.94.94,0,0,1,.6-1h1.82c.84.32.54,1.07.62,1.68a1.94,1.94,0,0,1,.54.2c.55.39.95.25,1.35-.26a.72.72,0,0,1,1.14,0c.33.31.65.64,1,1a.78.78,0,0,1,0,1.19l-.57.58h3.69a2,2,0,0,1,1.73.83,4.11,4.11,0,0,1,.39.85Zm-9.25-12.09c0,.26,0,.55,0,.84a.76.76,0,0,1-.81.8c-.47,0-.93,0-1.4,0a.77.77,0,0,1-.81-.77v-.31c0-.58,0-.52-.53-.8a.93.93,0,0,0-1.39.27.71.71,0,0,1-1.12,0q-.5-.48-1-1a.76.76,0,0,1,0-1.16c.2-.2.42-.38.62-.56l-.23-.46c-.12-.28-.15-.68-.36-.82s-.6,0-.91-.07a.72.72,0,0,1-.72-.69c0-.18,0-.38,0-.6h-9.91c-.46,0-.48,0-.48.48v13.38c0,.1,0,.21,0,.32h25.49V106.32c0-.73,0-.73-.72-.68l-.08,0c0,.14,0,.29,0,.44a.77.77,0,0,1-.83.81c-.22,0-.45,0-.67,0a.28.28,0,0,0-.22.14c-.17.38-.31.76-.48,1.19.19.18.41.38.61.59a.75.75,0,0,1,0,1.11c-.33.35-.67.68-1,1a.76.76,0,0,1-1.14,0c-.16-.16-.32-.34-.5-.49a.28.28,0,0,0-.25,0ZM464.09,106h.76a.82.82,0,0,1,.87.65,12,12,0,0,0,.46,1.12.8.8,0,0,1-.17,1.09c-.18.17-.39.32-.53.43l.88.93c.17-.18.34-.37.52-.55a.8.8,0,0,1,1.05-.15c.37.17.75.33,1.14.47a.8.8,0,0,1,.63.85c0,.26,0,.52,0,.77h1.2v-.78a.8.8,0,0,1,.61-.83c.4-.15.8-.31,1.18-.49a.8.8,0,0,1,1,.17l.49.51.89-.85c-.17-.16-.37-.33-.54-.51a.79.79,0,0,1-.16-1,9.85,9.85,0,0,0,.47-1.12.83.83,0,0,1,.92-.67h.72v-1.18h-.75a.82.82,0,0,1-.88-.64c-.14-.39-.31-.79-.49-1.17a.81.81,0,0,1,.16-1c.19-.19.38-.36.55-.52l-.87-.89-.49.54a.81.81,0,0,1-1.09.17,9.56,9.56,0,0,0-1.15-.47.8.8,0,0,1-.61-.83v-.8h-1.2c0,.28,0,.54,0,.8a.77.77,0,0,1-.59.82q-.62.24-1.23.51a.78.78,0,0,1-1-.15c-.19-.19-.37-.4-.54-.59l-.89.87c.2.19.4.37.59.57a.79.79,0,0,1,.14,1q-.27.61-.51,1.23a.8.8,0,0,1-.81.6h-.8Zm.84-2.47-.25,0H452.1a1.11,1.11,0,0,0-1.25,1.26v15h1v-.4q0-6.7,0-13.41a1.15,1.15,0,0,1,1.29-1.29h10c.25-.7.38-.79,1.11-.79a2.62,2.62,0,0,1,.28,0C464.76,104,464.93,103.88,464.93,103.55Zm3,21.13H463l-.34,3.79h5.6Zm12.19-4.86v-15a1.12,1.12,0,0,0-1.25-1.25H476l-.27,0c0,.3.12.41.41.38a3.17,3.17,0,0,1,.69,0c.44.06.62.37.69.78.19,0,.36,0,.54,0a1.65,1.65,0,0,1,.32,0,1.18,1.18,0,0,1,.84,1.26v13.8Z"/>
        <path class="a2b89823-8548-4efc-aa3e-a78a7dedc922" d="M465.51,121.8h1a.45.45,0,0,1,.48.44.46.46,0,0,1-.48.47h-2a.46.46,0,0,1-.5-.46c0-.27.19-.44.5-.45Z"/>
        <path class="a2b89823-8548-4efc-aa3e-a78a7dedc922" d="M457.08,117.06a4.4,4.4,0,0,1-.4.46.67.67,0,0,1-1,0c-.28-.25-.54-.52-.8-.79a.69.69,0,0,1,0-1,4.83,4.83,0,0,1,.42-.37c-.12-.29-.21-.54-.32-.78a.32.32,0,0,0-.2-.13,1,1,0,0,0-.24,0c-.68,0-.91-.23-.92-.91,0-.29,0-.58,0-.88a.68.68,0,0,1,.75-.73.62.62,0,0,0,.76-.5.52.52,0,0,0-.15-.68c-.46-.43-.45-.79,0-1.24l.65-.64a.66.66,0,0,1,1,0,.65.65,0,0,0,.94.18c.25-.12.36-.23.35-.52,0-.72.22-.93.94-.93.28,0,.55,0,.82,0a.67.67,0,0,1,.74.74c0,.45.12.64.54.79a.48.48,0,0,0,.62-.13c.48-.5.81-.5,1.3,0,.2.2.41.39.6.6a.66.66,0,0,1,0,1,.64.64,0,0,0-.19.92c.13.27.24.37.55.36.67,0,.91.23.91.9,0,.29,0,.57,0,.85,0,.48-.27.8-.75.76s-.63.12-.77.53a.5.5,0,0,0,.13.64c.5.46.49.79,0,1.28-.2.21-.41.42-.62.62a.66.66,0,0,1-1,0,.62.62,0,0,0-.94-.17,2.32,2.32,0,0,1-.35.14c0,.19,0,.37,0,.55a.7.7,0,0,1-.74.75c-.35,0-.7,0-1.06,0s-.74-.28-.7-.71a.65.65,0,0,0-.58-.82A1.63,1.63,0,0,1,457.08,117.06Zm5.72-.88c-.11-.09-.22-.18-.32-.28a.74.74,0,0,1-.15-1,5.81,5.81,0,0,0,.32-.78.73.73,0,0,1,.81-.59h.44v-.7h-.43a.74.74,0,0,1-.82-.61c-.1-.28-.23-.56-.35-.83a.71.71,0,0,1,.13-.89,3.65,3.65,0,0,1,.43-.31l-.58-.58c-.1.12-.18.23-.28.33a.74.74,0,0,1-1,.15,5.68,5.68,0,0,0-.81-.32.73.73,0,0,1-.55-.75v-.51h-.69V109a.74.74,0,0,1-.58.76,8.58,8.58,0,0,0-.83.35.73.73,0,0,1-1-.15,2.26,2.26,0,0,1-.27-.36l-.56.57a4.38,4.38,0,0,1,.34.29.71.71,0,0,1,.14,1q-.19.42-.36.87a.7.7,0,0,1-.72.53h-.5v.7h.44a.72.72,0,0,1,.8.59,7,7,0,0,0,.34.81.72.72,0,0,1-.16,1,2.12,2.12,0,0,1-.31.21l.5.62.29-.32a.72.72,0,0,1,1-.15,8.18,8.18,0,0,0,.82.32.73.73,0,0,1,.55.72v.52h.62c.08-.33.06-.72.24-.95s.58-.28.86-.45c.65-.42,1.21-.42,1.66.31Z"/>
        <path class="a2b89823-8548-4efc-aa3e-a78a7dedc922" d="M466.77,105.54a3.58,3.58,0,0,1,.52-2c.2-.32.44-.41.7-.26s.27.41.08.72a2.64,2.64,0,1,0,2.63-1.19,3.9,3.9,0,0,0-1,0c-.36,0-.6,0-.66-.32s.09-.5.46-.58a3.54,3.54,0,1,1-2.71,3.55Z"/>
        <path class="a2b89823-8548-4efc-aa3e-a78a7dedc922" d="M472.14,105.44a1.84,1.84,0,1,1-3.67,0,1.84,1.84,0,0,1,3.67,0Zm-.92,0a.92.92,0,0,0-.88-1,.93.93,0,0,0-.07,1.86A.93.93,0,0,0,471.22,105.46Z"/>
        <path class="a2b89823-8548-4efc-aa3e-a78a7dedc922" d="M456.84,113.18a2.42,2.42,0,1,1,2.43,2.41A2.42,2.42,0,0,1,456.84,113.18Zm3.92,0a1.53,1.53,0,0,0-1.5-1.52,1.51,1.51,0,1,0,1.5,1.52Z"/>
      </g>
      <circle class="a392347b-f3a3-499d-8ceb-0c28ddb01038" cx="465.5" cy="204.5" r="31"/>
      <text class="bf9ade47-6cdf-4551-bb99-e207d2eeffdf" transform="translate(457.03 224.08)">FDC</text>
      <path class="a392347b-f3a3-499d-8ceb-0c28ddb01038" d="M465.5,240.92a36.42,36.42,0,1,1,36.42-36.42A36.46,36.46,0,0,1,465.5,240.92Zm0-70a33.58,33.58,0,1,0,33.58,33.58A33.61,33.61,0,0,0,465.5,170.92Z"/>
      <g>
        <path class="a2b89823-8548-4efc-aa3e-a78a7dedc922" d="M481.06,207l-.06.13a2,2,0,0,1-2,1.51H468.88l.34,3.83h1.58a.47.47,0,0,1,.49.29.45.45,0,0,1-.36.61,1.22,1.22,0,0,1-.27,0H460.14a.46.46,0,1,1,0-.91h1.63l.34-3.83h-3.85a.44.44,0,0,1-.38-.45.44.44,0,0,1,.37-.45,1.82,1.82,0,0,1,.33,0h20.22c1,0,1.34-.38,1.34-1.34v-1.63H450.87c0,.69,0,1.39,0,2.08a1,1,0,0,0,1.1.89h4.16a.46.46,0,0,1,.48.45.45.45,0,0,1-.46.46h-4.11a2,2,0,0,1-2.11-2.11V188.77a2,2,0,0,1,2.14-2.15h13.28l-.55-.56a.78.78,0,0,1,0-1.23l.93-.92a.74.74,0,0,1,1.17,0,.9.9,0,0,0,1.35.27c.52-.29.57-.23.55-.85a.94.94,0,0,1,.6-1h1.82c.84.32.54,1.07.62,1.68a1.94,1.94,0,0,1,.54.2c.55.39.95.25,1.35-.26a.72.72,0,0,1,1.14,0c.33.31.65.64,1,1a.78.78,0,0,1,0,1.19l-.57.58h3.69a2,2,0,0,1,1.73.83,4.11,4.11,0,0,1,.39.85Zm-9.25-12.09c0,.26,0,.55,0,.84a.76.76,0,0,1-.81.8c-.47,0-.93,0-1.4,0a.77.77,0,0,1-.81-.77v-.31c0-.58,0-.52-.53-.8a.93.93,0,0,0-1.39.27.71.71,0,0,1-1.12,0q-.5-.48-1-1a.76.76,0,0,1,0-1.16c.2-.2.42-.38.62-.56l-.23-.46c-.12-.28-.15-.68-.36-.82s-.6-.05-.91-.07a.72.72,0,0,1-.72-.69c0-.18,0-.38,0-.6h-9.91c-.46,0-.48,0-.48.48v13.38c0,.1,0,.21,0,.32h25.49V190.32c0-.73,0-.73-.72-.68l-.08,0c0,.14,0,.29,0,.44a.77.77,0,0,1-.83.81c-.22,0-.45,0-.67,0a.28.28,0,0,0-.22.14c-.17.38-.31.76-.48,1.19.19.18.41.38.61.59a.75.75,0,0,1,0,1.11c-.33.35-.67.68-1,1a.76.76,0,0,1-1.14,0c-.16-.16-.32-.34-.5-.49a.28.28,0,0,0-.25,0ZM464.09,190h.76a.82.82,0,0,1,.87.65,12,12,0,0,0,.46,1.12.8.8,0,0,1-.17,1.09c-.18.17-.39.32-.53.43l.88.93c.17-.18.34-.37.52-.55a.8.8,0,0,1,1.05-.15c.37.17.75.33,1.14.47a.8.8,0,0,1,.63.85c0,.26,0,.52,0,.77h1.2v-.78a.8.8,0,0,1,.61-.83c.4-.15.8-.31,1.18-.49a.8.8,0,0,1,1,.17l.49.51.89-.85c-.17-.16-.37-.33-.54-.51a.79.79,0,0,1-.16-1,9.85,9.85,0,0,0,.47-1.12.83.83,0,0,1,.92-.67h.72v-1.18h-.75a.82.82,0,0,1-.88-.64c-.14-.39-.31-.79-.49-1.17a.81.81,0,0,1,.16-1c.19-.19.38-.36.55-.52l-.87-.89-.49.54a.81.81,0,0,1-1.09.17,9.56,9.56,0,0,0-1.15-.47.8.8,0,0,1-.61-.83v-.8h-1.2c0,.28,0,.54,0,.8a.77.77,0,0,1-.59.82q-.62.24-1.23.51a.78.78,0,0,1-1-.15c-.19-.19-.37-.4-.54-.59l-.89.87c.2.19.4.37.59.57a.79.79,0,0,1,.14,1q-.27.62-.51,1.23a.8.8,0,0,1-.81.6h-.8Zm.84-2.47-.25,0H452.1a1.11,1.11,0,0,0-1.25,1.26v15h1v-.4q0-6.71,0-13.41a1.15,1.15,0,0,1,1.29-1.29h10c.25-.7.38-.79,1.11-.79a2.62,2.62,0,0,1,.28,0C464.76,188,464.93,187.88,464.93,187.55Zm3,21.13H463l-.34,3.79h5.6Zm12.19-4.86v-15a1.12,1.12,0,0,0-1.25-1.25H476l-.27,0c0,.3.12.41.41.38a3.17,3.17,0,0,1,.69,0c.44.06.62.37.69.78H478a1.65,1.65,0,0,1,.32,0,1.18,1.18,0,0,1,.84,1.26v13.8Z"/>
        <path class="a2b89823-8548-4efc-aa3e-a78a7dedc922" d="M465.51,205.8c.33,0,.67,0,1,0a.45.45,0,0,1,.48.44.46.46,0,0,1-.48.47h-2a.46.46,0,0,1-.5-.46c0-.27.19-.44.5-.45S465.18,205.8,465.51,205.8Z"/>
        <path class="a2b89823-8548-4efc-aa3e-a78a7dedc922" d="M457.08,201.06a4.4,4.4,0,0,1-.4.46.67.67,0,0,1-1,0c-.28-.25-.54-.52-.8-.79a.69.69,0,0,1,0-1,4.83,4.83,0,0,1,.42-.37c-.12-.29-.21-.54-.32-.78a.32.32,0,0,0-.2-.13,1,1,0,0,0-.24,0c-.68,0-.91-.23-.92-.91,0-.29,0-.58,0-.88a.68.68,0,0,1,.75-.73.62.62,0,0,0,.76-.5.52.52,0,0,0-.15-.68c-.46-.43-.45-.79,0-1.24l.65-.64a.66.66,0,0,1,1,0,.65.65,0,0,0,.94.18c.25-.12.36-.23.35-.52,0-.72.22-.93.94-.93h.82a.67.67,0,0,1,.74.74c0,.45.12.64.54.79a.48.48,0,0,0,.62-.13c.48-.5.81-.5,1.3,0,.2.2.41.39.6.6a.66.66,0,0,1,0,1,.64.64,0,0,0-.19.92c.13.27.24.37.55.36.67,0,.91.23.91.9,0,.29,0,.57,0,.85,0,.48-.27.8-.75.76s-.63.12-.77.53a.5.5,0,0,0,.13.64c.5.46.49.79,0,1.28-.2.21-.41.42-.62.62a.66.66,0,0,1-1,0,.62.62,0,0,0-.94-.17,2.32,2.32,0,0,1-.35.14c0,.19,0,.37,0,.55a.7.7,0,0,1-.74.75h-1.06c-.43,0-.74-.28-.7-.71a.65.65,0,0,0-.58-.82A1.63,1.63,0,0,1,457.08,201.06Zm5.72-.88c-.11-.09-.22-.18-.32-.28a.74.74,0,0,1-.15-1,5.81,5.81,0,0,0,.32-.78.73.73,0,0,1,.81-.59h.44v-.7h-.43a.74.74,0,0,1-.82-.61c-.1-.28-.23-.56-.35-.83a.71.71,0,0,1,.13-.89,3.65,3.65,0,0,1,.43-.31l-.58-.58c-.1.12-.18.23-.28.33a.74.74,0,0,1-1,.15,5.68,5.68,0,0,0-.81-.32.73.73,0,0,1-.55-.75v-.51h-.69V193a.74.74,0,0,1-.58.76,8.58,8.58,0,0,0-.83.35.73.73,0,0,1-1-.15,2.26,2.26,0,0,1-.27-.36l-.56.57a4.38,4.38,0,0,1,.34.29.71.71,0,0,1,.14,1q-.19.42-.36.87a.7.7,0,0,1-.72.53h-.5v.7h.44a.72.72,0,0,1,.8.59,7,7,0,0,0,.34.81.72.72,0,0,1-.16,1,2.12,2.12,0,0,1-.31.21l.5.62.29-.32a.72.72,0,0,1,1-.15,8.18,8.18,0,0,0,.82.32.73.73,0,0,1,.55.72v.52h.62c.08-.33.06-.72.24-.95s.58-.28.86-.45c.65-.42,1.21-.42,1.66.31Z"/>
        <path class="a2b89823-8548-4efc-aa3e-a78a7dedc922" d="M466.77,189.54a3.58,3.58,0,0,1,.52-2c.2-.32.44-.41.7-.26s.27.41.08.72a2.64,2.64,0,1,0,2.63-1.19,3.9,3.9,0,0,0-1,0c-.36.05-.6,0-.66-.32s.09-.5.46-.58a3.54,3.54,0,1,1-2.71,3.55Z"/>
        <path class="a2b89823-8548-4efc-aa3e-a78a7dedc922" d="M472.14,189.44a1.84,1.84,0,1,1-3.67,0,1.84,1.84,0,0,1,3.67,0Zm-.92,0a.92.92,0,0,0-.88-1,.93.93,0,0,0-.07,1.86A.93.93,0,0,0,471.22,189.46Z"/>
        <path class="a2b89823-8548-4efc-aa3e-a78a7dedc922" d="M456.84,197.18a2.42,2.42,0,1,1,2.43,2.41A2.42,2.42,0,0,1,456.84,197.18Zm3.92,0a1.53,1.53,0,0,0-1.5-1.52,1.51,1.51,0,1,0,1.5,1.52Z"/>
      </g>
      <circle class="a392347b-f3a3-499d-8ceb-0c28ddb01038" cx="465.5" cy="288.5" r="31"/>
      <text class="bf9ade47-6cdf-4551-bb99-e207d2eeffdf" transform="translate(456 308.08)">EHM</text>
      <path class="a392347b-f3a3-499d-8ceb-0c28ddb01038" d="M465.5,324.92a36.42,36.42,0,1,1,36.42-36.42A36.46,36.46,0,0,1,465.5,324.92Zm0-70a33.58,33.58,0,1,0,33.58,33.58A33.61,33.61,0,0,0,465.5,254.92Z"/>
      <g>
        <path class="a2b89823-8548-4efc-aa3e-a78a7dedc922" d="M481.06,291l-.06.13a2,2,0,0,1-2,1.51H468.88l.34,3.83h1.58a.47.47,0,0,1,.49.29.45.45,0,0,1-.36.61,1.22,1.22,0,0,1-.27,0h-10.3a1.61,1.61,0,0,1-.22,0,.46.46,0,1,1,0-.91h1.63l.34-3.83h-3.85a.44.44,0,0,1-.38-.45.44.44,0,0,1,.37-.45,1.82,1.82,0,0,1,.33,0h20.22c1,0,1.34-.38,1.34-1.34v-1.63H450.87c0,.69,0,1.39,0,2.08a1,1,0,0,0,1.1.89h4.16a.46.46,0,0,1,.48.45.45.45,0,0,1-.46.46h-4.11a2,2,0,0,1-2.11-2.11V272.77a2,2,0,0,1,2.14-2.15h13.28l-.55-.56a.78.78,0,0,1,0-1.23l.93-.92a.74.74,0,0,1,1.17,0,.9.9,0,0,0,1.35.27c.52-.29.57-.23.55-.85a.94.94,0,0,1,.6-1h1.82c.84.32.54,1.07.62,1.68a1.94,1.94,0,0,1,.54.2c.55.39.95.25,1.35-.26a.72.72,0,0,1,1.14,0c.33.31.65.64,1,1a.78.78,0,0,1,0,1.19l-.57.58h3.69a2,2,0,0,1,1.73.83,4.11,4.11,0,0,1,.39.85Zm-9.25-12.09c0,.26,0,.55,0,.84a.76.76,0,0,1-.81.8h-1.4a.77.77,0,0,1-.81-.77v-.31c0-.58,0-.52-.53-.8a.93.93,0,0,0-1.39.27.71.71,0,0,1-1.12,0l-1-1a.76.76,0,0,1,0-1.16c.2-.2.42-.38.62-.56l-.23-.46c-.12-.28-.15-.68-.36-.82s-.6-.05-.91-.07a.72.72,0,0,1-.72-.69c0-.18,0-.38,0-.6h-9.91c-.46,0-.48,0-.48.48v13.38c0,.1,0,.21,0,.32h25.49V274.32c0-.73,0-.73-.72-.68l-.08,0c0,.14,0,.29,0,.44a.77.77,0,0,1-.83.81c-.22,0-.45,0-.67,0a.28.28,0,0,0-.22.14c-.17.38-.31.76-.48,1.19.19.18.41.38.61.59a.75.75,0,0,1,0,1.11c-.33.35-.67.68-1,1a.76.76,0,0,1-1.14,0c-.16-.16-.32-.34-.5-.49a.28.28,0,0,0-.25,0ZM464.09,274h.76a.82.82,0,0,1,.87.65,12,12,0,0,0,.46,1.12.8.8,0,0,1-.17,1.09c-.18.17-.39.32-.53.43l.88.93c.17-.18.34-.37.52-.55a.8.8,0,0,1,1.05-.15c.37.17.75.33,1.14.47a.8.8,0,0,1,.63.85c0,.26,0,.52,0,.77h1.2v-.78a.8.8,0,0,1,.61-.83c.4-.15.8-.31,1.18-.49a.8.8,0,0,1,1,.17l.49.51.89-.85c-.17-.16-.37-.33-.54-.51a.79.79,0,0,1-.16-1,9.85,9.85,0,0,0,.47-1.12.83.83,0,0,1,.92-.67h.72v-1.18h-.75a.82.82,0,0,1-.88-.64c-.14-.39-.31-.79-.49-1.17a.81.81,0,0,1,.16-1c.19-.19.38-.36.55-.52l-.87-.89-.49.54a.81.81,0,0,1-1.09.17,9.56,9.56,0,0,0-1.15-.47.8.8,0,0,1-.61-.83v-.8h-1.2c0,.28,0,.54,0,.8a.77.77,0,0,1-.59.82l-1.23.51a.78.78,0,0,1-1-.15c-.19-.19-.37-.4-.54-.59l-.89.87c.2.19.4.37.59.57a.79.79,0,0,1,.14,1q-.27.62-.51,1.23a.8.8,0,0,1-.81.6h-.8Zm.84-2.47-.25,0H452.1a1.11,1.11,0,0,0-1.25,1.26v15h1v-.4q0-6.71,0-13.41a1.15,1.15,0,0,1,1.29-1.29h10c.25-.7.38-.79,1.11-.79h.28C464.76,272,464.93,271.88,464.93,271.55Zm3,21.13H463l-.34,3.79h5.6Zm12.19-4.86v-15a1.12,1.12,0,0,0-1.25-1.25H476l-.27,0c0,.3.12.41.41.38a3.17,3.17,0,0,1,.69,0c.44.06.62.37.69.78.19,0,.36,0,.54,0a1.65,1.65,0,0,1,.32,0,1.18,1.18,0,0,1,.84,1.26v13.8Z"/>
        <path class="a2b89823-8548-4efc-aa3e-a78a7dedc922" d="M465.51,289.8h1a.45.45,0,0,1,.48.44.46.46,0,0,1-.48.47h-2a.46.46,0,0,1-.5-.46c0-.27.19-.44.5-.45Z"/>
        <path class="a2b89823-8548-4efc-aa3e-a78a7dedc922" d="M457.08,285.06a4.4,4.4,0,0,1-.4.46.67.67,0,0,1-1,0c-.28-.25-.54-.52-.8-.79a.69.69,0,0,1,0-1,4.83,4.83,0,0,1,.42-.37c-.12-.29-.21-.54-.32-.78a.32.32,0,0,0-.2-.13,1,1,0,0,0-.24,0c-.68,0-.91-.23-.92-.91,0-.29,0-.58,0-.88a.68.68,0,0,1,.75-.73.62.62,0,0,0,.76-.5.52.52,0,0,0-.15-.68c-.46-.43-.45-.79,0-1.24l.65-.64a.66.66,0,0,1,1,0,.65.65,0,0,0,.94.18c.25-.12.36-.23.35-.52,0-.72.22-.93.94-.93h.82a.67.67,0,0,1,.74.74c0,.45.12.64.54.79a.48.48,0,0,0,.62-.13c.48-.5.81-.5,1.3,0,.2.2.41.39.6.6a.66.66,0,0,1,0,1,.64.64,0,0,0-.19.92c.13.27.24.37.55.36.67,0,.91.23.91.9,0,.29,0,.57,0,.85,0,.48-.27.8-.75.76s-.63.12-.77.53a.5.5,0,0,0,.13.64c.5.46.49.79,0,1.28l-.62.62a.66.66,0,0,1-1,0,.62.62,0,0,0-.94-.17,2.32,2.32,0,0,1-.35.14c0,.19,0,.37,0,.55a.7.7,0,0,1-.74.75h-1.06c-.43,0-.74-.28-.7-.71a.65.65,0,0,0-.58-.82A1.63,1.63,0,0,1,457.08,285.06Zm5.72-.88c-.11-.09-.22-.18-.32-.28a.74.74,0,0,1-.15-1,5.81,5.81,0,0,0,.32-.78.73.73,0,0,1,.81-.59h.44v-.7h-.43a.74.74,0,0,1-.82-.61c-.1-.28-.23-.56-.35-.83a.71.71,0,0,1,.13-.89,3.65,3.65,0,0,1,.43-.31l-.58-.58c-.1.12-.18.23-.28.33a.74.74,0,0,1-1,.15,5.68,5.68,0,0,0-.81-.32.73.73,0,0,1-.55-.75v-.51h-.69V277a.74.74,0,0,1-.58.76,8.58,8.58,0,0,0-.83.35.73.73,0,0,1-1-.15,2.26,2.26,0,0,1-.27-.36l-.56.57a4.38,4.38,0,0,1,.34.29.71.71,0,0,1,.14,1q-.19.42-.36.87a.7.7,0,0,1-.72.53h-.5v.7h.44a.72.72,0,0,1,.8.59,7,7,0,0,0,.34.81.72.72,0,0,1-.16,1,2.12,2.12,0,0,1-.31.21l.5.62.29-.32a.72.72,0,0,1,1-.15,8.18,8.18,0,0,0,.82.32.73.73,0,0,1,.55.72v.52h.62c.08-.33.06-.72.24-.95s.58-.28.86-.45c.65-.42,1.21-.42,1.66.31Z"/>
        <path class="a2b89823-8548-4efc-aa3e-a78a7dedc922" d="M466.77,273.54a3.58,3.58,0,0,1,.52-2c.2-.32.44-.41.7-.26s.27.41.08.72a2.64,2.64,0,1,0,2.63-1.19,3.9,3.9,0,0,0-1,0c-.36.05-.6,0-.66-.32s.09-.5.46-.58a3.54,3.54,0,1,1-2.71,3.55Z"/>
        <path class="a2b89823-8548-4efc-aa3e-a78a7dedc922" d="M472.14,273.44a1.84,1.84,0,1,1-3.67,0,1.84,1.84,0,0,1,3.67,0Zm-.92,0a.92.92,0,0,0-.88-1,.93.93,0,0,0-.07,1.86A.93.93,0,0,0,471.22,273.46Z"/>
        <path class="a2b89823-8548-4efc-aa3e-a78a7dedc922" d="M456.84,281.18a2.42,2.42,0,1,1,2.43,2.41A2.42,2.42,0,0,1,456.84,281.18Zm3.92,0a1.53,1.53,0,0,0-1.5-1.52,1.51,1.51,0,1,0,1.5,1.52Z"/>
      </g>
    </g>
    <g>
      <circle class="fc596bcd-7f5b-4ab5-a420-dc4d63fdd105" cx="36.5" cy="72" r="31"/>
      <text class="bf9ade47-6cdf-4551-bb99-e207d2eeffdf" transform="translate(19.84 91.58)">生產履歷</text>
      <g>
        <path class="a2b89823-8548-4efc-aa3e-a78a7dedc922" d="M27.15,78.51a.82.82,0,0,1-.54-.87c0-3.68,0-7.35,0-11a1.55,1.55,0,0,1,0-.22.36.36,0,0,1,.71,0,1,1,0,0,1,0,.24V77.77H45.76V69.42l-.08.19c-.29,1-.57,1.92-.87,2.88a1.72,1.72,0,0,1-.27.52l-1.95,2.36a.79.79,0,0,1-1.05.28,1.4,1.4,0,0,1-.7-.57l-.21-.31c-.14.22-.26.43-.4.62a.89.89,0,0,1-1.47.16.23.23,0,0,1-.07-.07c-.16-.19-.29-.17-.47,0a1,1,0,0,1-1.45,0,.36.36,0,0,1-.07-.53.36.36,0,0,1,.52,0c.3.2.3.2.58,0a.85.85,0,0,1,1.34,0l.16.14a.17.17,0,0,0,.29,0q.12-.17.24-.36a4.78,4.78,0,0,1,.29-.44.6.6,0,0,1,1,0c.09.11.15.23.23.34a1.24,1.24,0,0,0,.28.28.48.48,0,0,0,0-.12c-.1-.92-.21-1.85-.31-2.77a.88.88,0,0,1,0-.36c.66-2.23,1.33-4.47,2-6.7a.64.64,0,0,1,.28-.36c.29-.11.52.18.42.52-.23.78-.47,1.56-.7,2.35l-1.24,4.15,2,.6,4.31-14.42-2-.6c0,.1-.07.19-.1.28q-.87,2.91-1.75,5.82a.86.86,0,0,1-.07.21.34.34,0,0,1-.41.16.33.33,0,0,1-.26-.34,1.22,1.22,0,0,1,.06-.26c.45-1.53.91-3.06,1.37-4.6,0-.06,0-.13.06-.23l-.24,0c-.53,0-1.06,0-1.58,0a1.67,1.67,0,0,1-1.74-1.75v-2H27.34V64.55a1.22,1.22,0,0,1,0,.27.34.34,0,0,1-.35.3.35.35,0,0,1-.36-.3,1,1,0,0,1,0-.24c0-3.35,0-6.7,0-10a.8.8,0,0,1,.54-.87H42.24a4.23,4.23,0,0,1,.42.32l2,1.88,1.06,1c.22-.15.42-.28.6-.42a.37.37,0,0,0,.12-.2c.11-.36.21-.73.32-1.09a1.35,1.35,0,1,1,2.59.78c-.11.37-.23.73-.32,1.1a.39.39,0,0,0,0,.28.82.82,0,0,1,.11.71c-.07.23-.13.46-.21.71l1,.31c.42.13.49.26.37.67l-1.11,3.72c-.14.46-.28.92-.43,1.39a.36.36,0,0,1-.44.27.38.38,0,0,1-.25-.48s0-.08,0-.12c.35-1.19.71-2.38,1.07-3.57.12-.41.24-.81.36-1.24l-.86-.24-.07.21c-.69,2.33-1.39,4.65-2.08,7a1.74,1.74,0,0,0-.06.45q0,5.26,0,10.51a.86.86,0,0,1-.53.91ZM45.23,57.43l-2.69-2.56c0,.58,0,1.09,0,1.61a.9.9,0,0,0,.86.94C44,57.45,44.57,57.43,45.23,57.43Zm3-.51c.14-.45.28-.87.38-1.3a.59.59,0,0,0-.38-.72.58.58,0,0,0-.74.28c-.18.44-.3.91-.45,1.38ZM42.36,74.5l1.41-1.7-1.66-.49Z"/>
        <path class="a2b89823-8548-4efc-aa3e-a78a7dedc922" d="M36.3,61.05H32.46c-.57,0-.77-.21-.77-.78V59a.61.61,0,0,1,.68-.67h7.87a.62.62,0,0,1,.69.69v1.26a.65.65,0,0,1-.73.74Zm-3.87-.75h7.76V59.1H32.43Z"/>
        <path class="a2b89823-8548-4efc-aa3e-a78a7dedc922" d="M36.51,63.85H31.76a1,1,0,0,1-.24,0,.34.34,0,0,1-.29-.36.33.33,0,0,1,.3-.35.81.81,0,0,1,.22,0H41.5a.35.35,0,0,1,.33.36.34.34,0,0,1-.32.36h-5Z"/>
        <path class="a2b89823-8548-4efc-aa3e-a78a7dedc922" d="M36.2,66.67H31.78a1.92,1.92,0,0,1-.24,0,.34.34,0,0,1-.31-.32.33.33,0,0,1,.26-.38,1.14,1.14,0,0,1,.26,0h9A.92.92,0,0,1,41,66a.29.29,0,0,1,.22.37.67.67,0,0,1-.29.31c-.06,0-.17,0-.26,0Z"/>
        <path class="a2b89823-8548-4efc-aa3e-a78a7dedc922" d="M35.86,69.51H31.78a1.32,1.32,0,0,1-.28,0,.33.33,0,0,1-.27-.36.33.33,0,0,1,.28-.34H40c.4,0,.56.11.56.37s-.17.36-.56.36Z"/>
        <path class="a2b89823-8548-4efc-aa3e-a78a7dedc922" d="M34.52,71.61h2.82c.3,0,.47.13.48.36s-.18.37-.48.37H31.69c-.3,0-.47-.14-.47-.38s.17-.35.46-.35Z"/>
      </g>
      <path class="fc596bcd-7f5b-4ab5-a420-dc4d63fdd105" d="M36.5,108.42A36.42,36.42,0,1,1,72.92,72,36.46,36.46,0,0,1,36.5,108.42Zm0-70A33.58,33.58,0,1,0,70.08,72,33.61,33.61,0,0,0,36.5,38.42Z"/>
    </g>
    <g>
      <circle class="fc596bcd-7f5b-4ab5-a420-dc4d63fdd105" cx="36.5" cy="162.5" r="31"/>
      <text class="bf9ade47-6cdf-4551-bb99-e207d2eeffdf" transform="translate(19.84 182.08)">生產設備</text>
      <path class="fc596bcd-7f5b-4ab5-a420-dc4d63fdd105" d="M36.5,198.92A36.42,36.42,0,1,1,72.92,162.5,36.46,36.46,0,0,1,36.5,198.92Zm0-70A33.58,33.58,0,1,0,70.08,162.5,33.61,33.61,0,0,0,36.5,128.92Z"/>
      <g>
        <path class="a2b89823-8548-4efc-aa3e-a78a7dedc922" d="M32,158.83l1.11-.49c.33-.14.5-.12.63.21a1,1,0,0,0,1.07.6c4.3,0,8.59,0,12.89,0a3.58,3.58,0,0,1,.44,7.14c-.21,0-.42,0-.63,0H34.4a.51.51,0,0,0-.52.3c-.38.7-.41.73-1.12.36a1.14,1.14,0,0,0-1.54.09,1.57,1.57,0,0,1-.63.32.42.42,0,0,0-.31.45c0,.33-.07.65-.1,1a.41.41,0,0,1-.47.43H27.52a.41.41,0,0,1-.47-.42c0-.38-.07-.76-.13-1.14a.43.43,0,0,0-.19-.25c-.41-.25-.82-.49-1.24-.72a.45.45,0,0,0-.32,0c-.34.13-.67.29-1,.44s-.46.1-.63-.19l-1.1-1.9a.4.4,0,0,1,.14-.61c.29-.21.59-.42.87-.65a.46.46,0,0,0,.16-.33q0-.72,0-1.44a.43.43,0,0,0-.13-.29c-.3-.23-.61-.45-.92-.67a.4.4,0,0,1-.12-.6l1.11-1.92a.4.4,0,0,1,.58-.19l.92.41v-12a2.44,2.44,0,0,1,0-.27.36.36,0,0,1,.58-.33c.29.16.58.34.93.55v-.86c0-.59.06-.65.65-.66h.15l.06-.31a3.3,3.3,0,0,1,3.26-2.63h4.2a.9.9,0,0,0,.45-.13,2.08,2.08,0,0,1,1.44-.28c.18,0,.27,0,.37-.18a3.08,3.08,0,0,1,5.52.32.33.33,0,0,0,.36.25,2.46,2.46,0,0,1,1.65,4.33,2.49,2.49,0,0,1-2.86.26,1.14,1.14,0,0,0-.51-.13c-2,0-3.94,0-5.91,0a3.8,3.8,0,0,1-2.83-1.08,2.47,2.47,0,0,0-1.74-.72.86.86,0,0,0-.44.12c-.12.07-.18.18-.05.35a.73.73,0,0,1,.09.42q0,1.49,0,3a.42.42,0,0,0,.24.44c.31.16.59.36.9.52a.67.67,0,0,1,.4.7c0,2.71,0,5.43,0,8.14Zm-7.91,7.53c.38-.17.74-.32,1.09-.49a.57.57,0,0,1,.61.08,14.84,14.84,0,0,0,1.49.87.59.59,0,0,1,.4.53c0,.38.07.75.11,1.13h1.73c.05-.41.1-.8.13-1.19a.46.46,0,0,1,.36-.45,4.07,4.07,0,0,0,1.52-.88.49.49,0,0,1,.6-.09l1.1.49.86-1.5c-.33-.24-.64-.48-1-.69a.57.57,0,0,1-.24-.57,17.22,17.22,0,0,0,0-1.76.56.56,0,0,1,.24-.56c.32-.22.63-.45,1-.7l-.86-1.49c-.39.17-.75.32-1.1.49a.53.53,0,0,1-.6-.09c-.5-.32-1-.61-1.53-.88a.53.53,0,0,1-.35-.46c0-.39-.09-.79-.13-1.18H27.75c0,.39-.09.78-.12,1.16a.5.5,0,0,1-.37.49,4,4,0,0,0-1.52.87.47.47,0,0,1-.6.08c-.35-.17-.71-.31-1.09-.48l-.87,1.49c.35.26.67.5,1,.72a.46.46,0,0,1,.2.52,4.32,4.32,0,0,0,0,1.79.5.5,0,0,1-.24.56c-.32.22-.63.45-1,.69Zm5.42-21.25a1.31,1.31,0,0,1,1.63-1,3.3,3.3,0,0,1,1.95.9,3,3,0,0,0,2.25.89c2.06,0,4.12,0,6.19,0a1.31,1.31,0,0,1,.6.18,1.74,1.74,0,1,0,.61-3.15c-.39.07-.49,0-.59-.38A2.37,2.37,0,0,0,40,140.74a2.33,2.33,0,0,0-2.37,1.53c-.15.37-.28.42-.64.29a1.42,1.42,0,0,0-1.35.15,1.16,1.16,0,0,1-.54.18c-1.45,0-2.9,0-4.36,0a3,3,0,0,0-1.15.24,2.48,2.48,0,0,0-1.46,2Zm1.75,13.25c0-.09,0-.14,0-.18,0-2.56,0-5.13,0-7.69a.48.48,0,0,0-.21-.33q-2.48-1.5-5-3L25.8,147v11.45c.33-.16.65-.31.95-.47a.35.35,0,0,0,.17-.24c.06-.38.09-.75.13-1.13a.42.42,0,0,1,.47-.43h2.22a.39.39,0,0,1,.44.39c0,.36.06.73.12,1.1a.39.39,0,0,0,.15.28A6.94,6.94,0,0,0,31.22,158.36Zm3.3,7.21H48a2.84,2.84,0,0,0-.32-5.68H34.52c.17.46.76.9-.05,1.29l.1,0h2a.84.84,0,0,0,.41-.14,2.09,2.09,0,0,1,2.42,0,.82.82,0,0,0,.45.16h6.28a.85.85,0,0,0,.46-.16,2,2,0,1,1,0,3.32.81.81,0,0,0-.46-.15H39.88a1,1,0,0,0-.48.16,1.93,1.93,0,0,1-2.18.1,1.88,1.88,0,0,0-1.07-.27H34.52C35.29,164.67,34.68,165.1,34.52,165.57ZM45.82,162H40.19v1.52h5.63ZM38.2,164a1.32,1.32,0,1,0-1.31-1.33A1.33,1.33,0,0,0,38.2,164Zm10.91-1.32A1.31,1.31,0,1,0,47.79,164,1.32,1.32,0,0,0,49.11,162.72ZM29.68,145.86H27.3c0,.34,0,.68,0,1a.47.47,0,0,0,.18.3c.45.29.92.56,1.38.84.26.15.53.3.82.48Zm4,17.62h2.56V162H33.66Z"/>
        <path class="a2b89823-8548-4efc-aa3e-a78a7dedc922" d="M38,157.7v-1.33H36.47a.33.33,0,0,1-.38-.34.34.34,0,0,1,.37-.38H38v-3.5a1.16,1.16,0,0,1,1.27-1.26h7.3a1.17,1.17,0,0,1,1.29,1.28v5a1.19,1.19,0,0,1-1.33,1.31H35.47c-.11,0-.24,0-.32,0s-.27-.22-.27-.33.15-.26.26-.34.22,0,.33,0Zm6.61-6.09c0,1,0,2,0,2.95a.52.52,0,0,1-.23.4c-.1.06-.3,0-.42-.09a4,4,0,0,1-.61-.48.32.32,0,0,0-.45,0c-.3.19-.63.35-.94.52-.5.27-.72.14-.72-.41v-2.83l-.13,0c-.6,0-1.2,0-1.8,0-.44,0-.58.14-.58.57v4.92c0,.46.13.6.58.6h7.24c.43,0,.58-.15.58-.58,0-.23,0-.46,0-.69,0-1.41,0-2.82,0-4.23,0-.38-.13-.58-.41-.59C46.05,151.6,45.36,151.61,44.64,151.61Zm-.78,2.3,0-.09v-2.19H42V154c.17-.09.31-.15.45-.24C42.94,153.46,43.41,153.23,43.86,153.91Z"/>
        <path class="a2b89823-8548-4efc-aa3e-a78a7dedc922" d="M47.34,147.48a4,4,0,0,1,.09-.43,2,2,0,0,1,4,.48,2,2,0,0,1-1.74,2.05l-.24,0H44.14a1.06,1.06,0,0,1-1.06-1.08,1.08,1.08,0,0,1,1.1-1.05h3.16Zm-.51,1.41h2.35a2.48,2.48,0,0,0,.47,0,1.3,1.3,0,1,0-1.55-1.2c0,.44-.08.56-.52.56H44.39c-.1,0-.22,0-.29,0s-.26.2-.27.31.14.24.25.32.19,0,.29,0Z"/>
        <path class="a2b89823-8548-4efc-aa3e-a78a7dedc922" d="M34.1,156.37h-.66a.33.33,0,0,1-.34-.35.32.32,0,0,1,.32-.36q.7,0,1.41,0a.31.31,0,0,1,.31.37.33.33,0,0,1-.34.34Z"/>
        <path class="a2b89823-8548-4efc-aa3e-a78a7dedc922" d="M30.65,162.71a2,2,0,0,1-2,2.06,2,2,0,1,1,0-4.09A2,2,0,0,1,30.65,162.71Zm-.72,0a1.31,1.31,0,1,0-1.34,1.3A1.31,1.31,0,0,0,29.93,162.74Z"/>
        <path class="a2b89823-8548-4efc-aa3e-a78a7dedc922" d="M30,153.29v1.14c0,.31-.15.5-.38.48s-.36-.21-.36-.46V152.2c0-.33.14-.48.38-.48s.35.16.36.49Z"/>
        <path class="a2b89823-8548-4efc-aa3e-a78a7dedc922" d="M27,153.31c0-.38,0-.76,0-1.14s.13-.45.37-.45.35.15.35.45c0,.76,0,1.52,0,2.29,0,.29-.13.45-.35.45s-.37-.17-.37-.45S27,153.69,27,153.31Z"/>
      </g>
    </g>
    <g>
      <circle class="a5b9f31f-7dd0-4947-a929-ea08587abbd6" cx="36.5" cy="253" r="31"/>
      <text class="bf9ade47-6cdf-4551-bb99-e207d2eeffdf" transform="translate(19.84 272.58)">量測機台</text>
      <path class="a5b9f31f-7dd0-4947-a929-ea08587abbd6" d="M36.5,289.42A36.42,36.42,0,1,1,72.92,253,36.46,36.46,0,0,1,36.5,289.42Zm0-70A33.58,33.58,0,1,0,70.08,253,33.61,33.61,0,0,0,36.5,219.42Z"/>
      <g>
        <path class="a2b89823-8548-4efc-aa3e-a78a7dedc922" d="M21.5,237.86v-1.4a.86.86,0,0,1,.95-.57c.19,0,.37,0,.56,0h1.12c0-.58,0-1.11,0-1.65a.7.7,0,0,1,.49-.71,3.53,3.53,0,0,1,.4-.08c0-.16,0-.33,0-.49a1.48,1.48,0,0,1,1.59-1.59h8.73a1.47,1.47,0,0,1,1.59,1.56c0,.22,0,.45,0,.67s0,.25.22.3a1.9,1.9,0,0,1,1.43,1.37,4,4,0,0,1,.1.6h7.54c0-.54,0-1.05,0-1.57a.74.74,0,0,1,.79-.82c.36,0,.72,0,1.09,0a.73.73,0,0,1,.75.78c0,.15,0,.3,0,.44v1.17h1.77a.76.76,0,0,1,.87.86v.64c0,.74-.25,1-1,1H48.88v4.91c.61.11.8.33.8.93v1.09h1.07a.71.71,0,0,1,.74.71q0,2.52,0,5a.7.7,0,0,1-.74.71H49.19l-.31,0v3.52c.67.17.8.33.8,1v1h1.07a.73.73,0,0,1,.75.77c0,.32,0,.63,0,.94a.73.73,0,0,1-.74.77H22.51a1,1,0,0,1-1-.53v-1.4a.86.86,0,0,1,.95-.57c.28,0,.56,0,.86,0V256.1a.68.68,0,0,1,.4-.66,2.3,2.3,0,0,1,.42-.14v-.67c0-.32.18-.51.44-.51s.43.2.44.52,0,.45,0,.68h.86v-3.53H25v.35c0,.1,0,.21,0,.32a.44.44,0,1,1-.88,0v-.69c-.58,0-1.13,0-1.67,0a.91.91,0,0,1-1-.56v-5.39a.93.93,0,0,1,1-.53c.25,0,.52,0,.8,0v-1c0-.68.16-.87.81-1v-4.9c-.55,0-1.08,0-1.61,0A1,1,0,0,1,21.5,237.86Zm23.91,7.43v-1c0-.67.15-.86.81-1,0-.05,0-.11,0-.17,0-.44,0-.88,0-1.32a.44.44,0,1,1,.87,0c0,.12,0,.24,0,.35v1.15H48v-4.88h-.86v1a2.26,2.26,0,0,1,0,.26.44.44,0,1,1-.87,0c0-.42,0-.85,0-1.28H38.41a3.84,3.84,0,0,0,0,.48,1.92,1.92,0,0,1-.85,2,1.28,1.28,0,0,0-.62,1.39.37.37,0,0,1,0,.11.43.43,0,0,1-.86,0c0-.21,0-.43,0-.64a.83.83,0,0,0-.18-.43,7.65,7.65,0,0,0-.81-.8,1.17,1.17,0,0,1-.48-1.14c0-.34,0-.68,0-1H26.78v4.89c.62.11.81.33.81,1v1h3.29l0,0c0-.2,0-.39,0-.59s.16-.49.41-.5a.46.46,0,0,1,.46.5c0,.21,0,.42,0,.64h4.27v-.48q0-.67.45-.66c.29,0,.43.22.43.67v.47H41.2c0-.24,0-.46,0-.69a.44.44,0,0,1,.44-.45.43.43,0,0,1,.43.46c0,.22,0,.44,0,.68Zm5.18,5.59V246.2H22.4v4.68Zm-28.2,8H50.6v-.7H42.09c-.13,0-.28,0-.37,0s-.31-.25-.31-.39.15-.31.28-.41.22,0,.34,0h3l.29,0,0-.05c0-.38,0-.76,0-1.14a.74.74,0,0,1,.59-.77l.22-.05V251.8H43.69v.34c0,.64,0,1.29,0,1.93a1.6,1.6,0,0,1-1.55,1.66q-5.64,0-11.28,0a1.52,1.52,0,0,1-1.51-1.33c-.06-.74,0-1.48,0-2.23v-.38H26.78v3.52c.69.18.81.34.81,1.05v1h11.9a2.08,2.08,0,0,1,.35,0,.43.43,0,0,1,0,.85,2.42,2.42,0,0,1-.38,0H22.39Zm11.91-23c.13-1,.45-1.62,1.17-1.84s.65-.51.59-1v0c0-.59-.2-.79-.79-.79H26.54a.59.59,0,0,0-.63.62c0,.19,0,.39,0,.58l.34.07a.75.75,0,0,1,.53.76v1.61h1.39c.34,0,.54.18.54.45s-.21.41-.53.42H22.4v.72H34.31v-.72H30.4c-.34,0-.52-.15-.53-.42s.18-.45.53-.45h3.9Zm-4.11,15.9c0,.76,0,1.49,0,2.22,0,.57.28.84.87.85H42c.47,0,.79-.22.8-.63,0-.81,0-1.61,0-2.44Zm8.48-14.31H50.6v-.68H38.67Zm-.89,0c0-.64,0-1.25,0-1.86a1,1,0,0,0-.85-.89,3,3,0,0,0-.84,0,.88.88,0,0,0-.81.77,18.63,18.63,0,0,0,0,2Zm-11.91,5.8v-4.9H25v4.9Zm10.56-2.5,1-1a.21.21,0,0,0,.07-.12v-1.26H35.47c0,.42,0,.82,0,1.21a.32.32,0,0,0,.1.2C35.84,240.14,36.12,240.45,36.43,240.8Zm11.54,11h-.85v3.53H48Zm-21.28-6.5v-1.08H24.21v1.08Zm19.62-1.09v1.09h2.48V244.2Zm-22.1,13.12h2.48v-1.08H24.21Zm24.57,0v-1.08H46.31v1.08Zm-1.65-22.94v1.5H48v-1.5Zm-22.1,0v1.49h.84v-1.49Z"/>
        <path class="a2b89823-8548-4efc-aa3e-a78a7dedc922" d="M47.57,247h1.29c.38,0,.52.16.53.54v2.05c0,.37-.17.54-.54.54H46.24c-.37,0-.53-.17-.53-.55,0-.67,0-1.35,0-2,0-.41.15-.56.57-.56Zm-1,2.23h1.9v-1.33h-1.9Z"/>
        <path class="a2b89823-8548-4efc-aa3e-a78a7dedc922" d="M25.47,247h1.29c.38,0,.53.16.53.55v2c0,.39-.16.56-.55.56H24.17c-.4,0-.56-.16-.56-.55V247.5c0-.36.15-.52.51-.53Zm.93.9H24.51v1.33H26.4Z"/>
        <path class="a2b89823-8548-4efc-aa3e-a78a7dedc922" d="M35.28,248.27a1.27,1.27,0,0,1,.95-1.26,1.23,1.23,0,0,1,1.44.72,1.21,1.21,0,0,1-.44,1.5c-.17.12-.29.21-.28.45a.41.41,0,0,1-.44.41.41.41,0,0,1-.41-.44.41.41,0,0,0-.26-.4A1.18,1.18,0,0,1,35.28,248.27Zm1.25.31a.35.35,0,0,0,.36-.37.34.34,0,0,0-.35-.35.35.35,0,0,0-.38.35A.36.36,0,0,0,36.53,248.58Z"/>
        <path class="a2b89823-8548-4efc-aa3e-a78a7dedc922" d="M31.76,248.26a1.27,1.27,0,0,1,1-1.26,1.24,1.24,0,0,1,1.41.74,1.22,1.22,0,0,1-.47,1.51.43.43,0,0,0-.25.41.41.41,0,0,1-.42.43.42.42,0,0,1-.44-.44.4.4,0,0,0-.23-.39A1.18,1.18,0,0,1,31.76,248.26Zm1.24.32a.36.36,0,0,0,.38-.36.35.35,0,0,0-.35-.36.36.36,0,0,0-.39.34A.37.37,0,0,0,33,248.58Z"/>
        <path class="a2b89823-8548-4efc-aa3e-a78a7dedc922" d="M40,247a1.25,1.25,0,0,1,1.2.9,1.22,1.22,0,0,1-.53,1.4.36.36,0,0,0-.23.38.44.44,0,1,1-.87,0,.41.41,0,0,0-.24-.41,1.22,1.22,0,0,1-.52-1.4A1.28,1.28,0,0,1,40,247Zm0,1.61a.38.38,0,0,0,.37-.38.36.36,0,0,0-.4-.34.35.35,0,0,0-.34.36A.35.35,0,0,0,40,248.58Z"/>
        <path class="a2b89823-8548-4efc-aa3e-a78a7dedc922" d="M32.58,253.26a2,2,0,0,1,0-.35.43.43,0,0,1,.86,0,5,5,0,0,1,0,.67A.45.45,0,0,1,33,254a.45.45,0,0,1-.43-.46v-.3Z"/>
        <path class="a2b89823-8548-4efc-aa3e-a78a7dedc922" d="M37,253.26c0,.1,0,.21,0,.32a.45.45,0,0,1-.45.44.43.43,0,0,1-.42-.44c0-.2,0-.41,0-.61a.44.44,0,1,1,.87,0C37,253.06,37,253.16,37,253.26Z"/>
        <path class="a2b89823-8548-4efc-aa3e-a78a7dedc922" d="M39.6,253.27V253a.46.46,0,0,1,.43-.47.45.45,0,0,1,.45.45c0,.2,0,.41,0,.61a.44.44,0,1,1-.88,0Z"/>
      </g>
    </g>
    <g>
      <circle class="a5b9f31f-7dd0-4947-a929-ea08587abbd6" cx="136.5" cy="253" r="31"/>
      <text class="bf9ade47-6cdf-4551-bb99-e207d2eeffdf" transform="translate(128.01 272.58)">SPC</text>
      <path class="a5b9f31f-7dd0-4947-a929-ea08587abbd6" d="M136.5,289.42A36.42,36.42,0,1,1,172.92,253,36.46,36.46,0,0,1,136.5,289.42Zm0-70A33.58,33.58,0,1,0,170.08,253,33.61,33.61,0,0,0,136.5,219.42Z"/>
      <g>
        <path class="a2b89823-8548-4efc-aa3e-a78a7dedc922" d="M152.06,254.77l-.06.13a2,2,0,0,1-2,1.51H139.88l.34,3.83h1.58a.47.47,0,0,1,.49.29.45.45,0,0,1-.36.61,1.22,1.22,0,0,1-.27,0h-10.3a1.61,1.61,0,0,1-.22,0,.46.46,0,1,1,0-.91h1.63l.34-3.83h-3.85a.44.44,0,0,1-.38-.45.44.44,0,0,1,.37-.45,1.82,1.82,0,0,1,.33,0h20.22c1,0,1.34-.38,1.34-1.34v-1.63H121.87c0,.69,0,1.39,0,2.08a1,1,0,0,0,1.1.89h4.16a.46.46,0,0,1,.48.45.45.45,0,0,1-.46.46h-4.11a2,2,0,0,1-2.11-2.11V236.52a2,2,0,0,1,2.14-2.15h13.28l-.55-.56a.78.78,0,0,1,0-1.23l.93-.92a.74.74,0,0,1,1.17,0,.9.9,0,0,0,1.35.27c.52-.29.57-.23.55-.85a.94.94,0,0,1,.6-1h1.82c.84.32.54,1.07.62,1.68a1.94,1.94,0,0,1,.54.2c.55.39.95.25,1.35-.26a.72.72,0,0,1,1.14,0c.33.31.65.64,1,1a.78.78,0,0,1,0,1.19l-.57.58h3.69a2,2,0,0,1,1.73.83,4.11,4.11,0,0,1,.39.85Zm-9.25-12.09c0,.26,0,.55,0,.84a.76.76,0,0,1-.81.8c-.47,0-.93,0-1.4,0a.77.77,0,0,1-.81-.77v-.31c0-.58,0-.52-.53-.8a.93.93,0,0,0-1.39.27.71.71,0,0,1-1.12,0q-.5-.48-1-1a.76.76,0,0,1,0-1.16c.2-.2.42-.38.62-.56l-.23-.46c-.12-.28-.15-.68-.36-.82s-.6-.05-.91-.07a.72.72,0,0,1-.72-.69c0-.18,0-.38,0-.6h-9.91c-.46,0-.48,0-.48.48v13.38c0,.1,0,.21,0,.32h25.49V238.07c0-.73,0-.73-.72-.68,0,0,0,0-.08,0s0,.29,0,.44a.77.77,0,0,1-.83.81c-.22,0-.45,0-.67,0a.28.28,0,0,0-.22.14c-.17.38-.31.76-.48,1.19.19.18.41.38.61.59a.75.75,0,0,1,0,1.11c-.33.35-.67.68-1,1a.76.76,0,0,1-1.14,0c-.16-.16-.32-.34-.5-.49a.28.28,0,0,0-.25,0Zm-7.72-4.91h.76a.82.82,0,0,1,.87.65,12,12,0,0,0,.46,1.12.8.8,0,0,1-.17,1.09c-.18.17-.39.32-.53.43l.88.93c.17-.18.34-.37.52-.55a.8.8,0,0,1,1.05-.15c.37.17.75.33,1.14.47a.8.8,0,0,1,.63.85c0,.26,0,.52,0,.77h1.2v-.78a.8.8,0,0,1,.61-.83c.4-.15.8-.31,1.18-.49a.8.8,0,0,1,1,.17l.49.51.89-.85c-.17-.16-.37-.33-.54-.51a.79.79,0,0,1-.16-1,9.85,9.85,0,0,0,.47-1.12.83.83,0,0,1,.92-.67h.72v-1.18h-.75a.82.82,0,0,1-.88-.64c-.14-.39-.31-.79-.49-1.17a.81.81,0,0,1,.16-1c.19-.19.38-.36.55-.52l-.87-.89-.49.54a.81.81,0,0,1-1.09.17,9.56,9.56,0,0,0-1.15-.47.8.8,0,0,1-.61-.83V231h-1.2c0,.28,0,.54,0,.8a.77.77,0,0,1-.59.82q-.62.24-1.23.51a.78.78,0,0,1-1-.15c-.19-.19-.37-.4-.54-.59l-.89.87c.2.19.4.37.59.57a.79.79,0,0,1,.14,1q-.27.62-.51,1.23a.8.8,0,0,1-.81.6h-.8Zm.84-2.47-.25,0H123.1a1.11,1.11,0,0,0-1.25,1.26v15h1v-.4q0-6.71,0-13.41a1.15,1.15,0,0,1,1.29-1.29h10c.25-.7.38-.79,1.11-.79a2.62,2.62,0,0,1,.28,0C135.76,235.71,135.93,235.63,135.93,235.3Zm3,21.13H134l-.34,3.79h5.6Zm12.19-4.86v-15a1.12,1.12,0,0,0-1.25-1.25h-3l-.27,0c0,.3.12.41.41.38a3.17,3.17,0,0,1,.69,0c.44.06.62.37.69.78H149a1.65,1.65,0,0,1,.32,0,1.18,1.18,0,0,1,.84,1.26v13.8Z"/>
        <path class="a2b89823-8548-4efc-aa3e-a78a7dedc922" d="M136.51,253.55c.33,0,.67,0,1,0a.45.45,0,0,1,.48.44.46.46,0,0,1-.48.47h-2a.46.46,0,0,1-.5-.46c0-.27.19-.44.5-.45S136.18,253.55,136.51,253.55Z"/>
        <path class="a2b89823-8548-4efc-aa3e-a78a7dedc922" d="M128.08,248.81a4.4,4.4,0,0,1-.4.46.67.67,0,0,1-1,0c-.28-.25-.54-.52-.8-.79a.69.69,0,0,1,0-1,4.83,4.83,0,0,1,.42-.37c-.12-.29-.21-.54-.32-.78a.32.32,0,0,0-.2-.13,1,1,0,0,0-.24,0c-.68,0-.91-.23-.92-.91,0-.29,0-.58,0-.88a.68.68,0,0,1,.75-.73.62.62,0,0,0,.76-.5.52.52,0,0,0-.15-.68c-.46-.43-.45-.79,0-1.24l.65-.64a.66.66,0,0,1,1,0,.65.65,0,0,0,.94.18c.25-.12.36-.23.35-.52,0-.72.22-.93.94-.93h.82a.67.67,0,0,1,.74.74c0,.45.12.64.54.79a.48.48,0,0,0,.62-.13c.48-.5.81-.5,1.3,0,.2.2.41.39.6.6a.66.66,0,0,1,0,1,.64.64,0,0,0-.19.92c.13.27.24.37.55.36.67,0,.91.23.91.9,0,.29,0,.57,0,.85,0,.48-.27.8-.75.76s-.63.12-.77.53a.5.5,0,0,0,.13.64c.5.46.49.79,0,1.28-.2.21-.41.42-.62.62a.66.66,0,0,1-1,0,.62.62,0,0,0-.94-.17,2.32,2.32,0,0,1-.35.14c0,.19,0,.37,0,.55a.7.7,0,0,1-.74.75h-1.06c-.43,0-.74-.28-.7-.71a.65.65,0,0,0-.58-.82A1.63,1.63,0,0,1,128.08,248.81Zm5.72-.88c-.11-.09-.22-.18-.32-.28a.74.74,0,0,1-.15-1,5.81,5.81,0,0,0,.32-.78.73.73,0,0,1,.81-.59h.44v-.7h-.43a.74.74,0,0,1-.82-.61c-.1-.28-.23-.56-.35-.83a.71.71,0,0,1,.13-.89,3.65,3.65,0,0,1,.43-.31l-.58-.58c-.1.12-.18.23-.28.33a.74.74,0,0,1-1,.15,5.68,5.68,0,0,0-.81-.32.73.73,0,0,1-.55-.75v-.51h-.69v.49a.74.74,0,0,1-.58.76,8.58,8.58,0,0,0-.83.35.73.73,0,0,1-1-.15,2.26,2.26,0,0,1-.27-.36l-.56.57a4.38,4.38,0,0,1,.34.29.71.71,0,0,1,.14,1q-.19.42-.36.87a.7.7,0,0,1-.72.53h-.5v.7h.44a.72.72,0,0,1,.8.59,7,7,0,0,0,.34.81.72.72,0,0,1-.16,1,2.12,2.12,0,0,1-.31.21l.5.62.29-.32a.72.72,0,0,1,1-.15,8.18,8.18,0,0,0,.82.32.73.73,0,0,1,.55.72v.52h.62c.08-.33.06-.72.24-.95s.58-.28.86-.45c.65-.42,1.21-.42,1.66.31Z"/>
        <path class="a2b89823-8548-4efc-aa3e-a78a7dedc922" d="M137.77,237.29a3.58,3.58,0,0,1,.52-2c.2-.32.44-.41.7-.26s.27.41.08.72a2.64,2.64,0,1,0,2.63-1.19,3.9,3.9,0,0,0-1,0c-.36.05-.6,0-.66-.32s.09-.5.46-.58a3.54,3.54,0,1,1-2.71,3.55Z"/>
        <path class="a2b89823-8548-4efc-aa3e-a78a7dedc922" d="M143.14,237.19a1.84,1.84,0,1,1-3.67,0,1.84,1.84,0,0,1,3.67,0Zm-.92,0a.92.92,0,0,0-.88-1,.93.93,0,0,0-.07,1.86A.93.93,0,0,0,142.22,237.21Z"/>
        <path class="a2b89823-8548-4efc-aa3e-a78a7dedc922" d="M127.84,244.93a2.42,2.42,0,1,1,2.43,2.41A2.42,2.42,0,0,1,127.84,244.93Zm3.92,0a1.53,1.53,0,0,0-1.5-1.52,1.51,1.51,0,1,0,1.5,1.52Z"/>
      </g>
    </g>
    <g>
      <rect class="eb012276-c417-41db-a075-23bce3ce65bf" x="242" y="74" width="101" height="177" rx="14.19" transform="translate(455 -130) rotate(90)"/>
      <rect class="a646d246-da9d-42c5-b121-8fa1606f1547" x="272" y="115.5" width="106" height="29.21" rx="11.15"/>
      <rect class="f7c18f98-61be-4888-80c2-346674251659" x="207" y="115" width="62" height="95" rx="11.15"/>
      <rect class="b04b57a5-2469-4a3f-8725-20ee734120b1" x="272" y="148.4" width="106" height="29.21" rx="11.15"/>
      <rect class="b389200a-11f7-4af1-adb2-87d11e746504" x="272" y="181.29" width="106" height="29.21" rx="11.15"/>
      <text class="bf9ade47-6cdf-4551-bb99-e207d2eeffdf" transform="translate(221.34 176.12)">資料品質<tspan x="0" y="12">監控模組</tspan></text>
      <text class="bf9ade47-6cdf-4551-bb99-e207d2eeffdf" transform="translate(285.71 132.72)">MI-QVM 核心演算法</text>
      <text class="bf9ade47-6cdf-4551-bb99-e207d2eeffdf" transform="translate(308.34 165.62)">信心指標</text>
      <text class="bf9ade47-6cdf-4551-bb99-e207d2eeffdf" transform="translate(304.18 198.51)">相似度指標</text>
      <g>
        <path class="a2b89823-8548-4efc-aa3e-a78a7dedc922" d="M253.56,157.37l-.06.14a2,2,0,0,1-2,1.51H241.38l.34,3.82h1.58a.47.47,0,0,1,.49.29.45.45,0,0,1-.36.61,1.22,1.22,0,0,1-.27,0H232.64a.46.46,0,1,1,0-.91h1.63l.34-3.82H231a1.22,1.22,0,0,1-.27,0,.43.43,0,0,1-.38-.44.43.43,0,0,1,.37-.45,1.22,1.22,0,0,1,.33,0h20.22c1,0,1.34-.38,1.34-1.34v-1.63H223.37c0,.7,0,1.39,0,2.09a1,1,0,0,0,1.1.88c1.31,0,2.61,0,3.92,0h.24a.45.45,0,0,1,.48.44.44.44,0,0,1-.46.46h-4.11a2,2,0,0,1-2.11-2.12V139.12a2,2,0,0,1,2.14-2.15h13.28l-.55-.56a.77.77,0,0,1,0-1.22l.93-.93a.74.74,0,0,1,1.17,0,.89.89,0,0,0,1.35.27c.52-.29.57-.23.55-.85a.94.94,0,0,1,.6-1h1.82c.84.33.54,1.07.62,1.68a2.87,2.87,0,0,1,.54.2c.55.39.95.25,1.35-.25a.72.72,0,0,1,1.14,0l1,1a.77.77,0,0,1,0,1.18l-.57.58h3.69a2,2,0,0,1,1.73.83,4.65,4.65,0,0,1,.39.85Zm-9.25-12.09c0,.26,0,.55,0,.85a.76.76,0,0,1-.81.79c-.47,0-.93,0-1.4,0a.77.77,0,0,1-.81-.77v-.3c0-.58,0-.52-.53-.81a.93.93,0,0,0-1.39.27.71.71,0,0,1-1.12,0l-1-1a.75.75,0,0,1,0-1.15,7.84,7.84,0,0,1,.62-.56c-.1-.2-.17-.33-.23-.47s-.15-.67-.36-.81-.6,0-.91-.07a.74.74,0,0,1-.72-.69c0-.19,0-.38,0-.61h-9.91c-.46,0-.48,0-.48.48v13.38c0,.1,0,.21,0,.32h25.49V140.67c0-.73,0-.73-.72-.68l-.08,0c0,.14,0,.29,0,.44a.77.77,0,0,1-.83.81c-.22,0-.45,0-.67,0a.31.31,0,0,0-.22.14c-.17.38-.31.77-.48,1.19.19.18.41.38.61.59a.77.77,0,0,1,0,1.12c-.33.34-.67.68-1,1a.76.76,0,0,1-1.14,0c-.16-.16-.32-.34-.5-.49a.28.28,0,0,0-.25,0Zm-7.72-4.91h.76a.82.82,0,0,1,.87.65,12,12,0,0,0,.46,1.12.8.8,0,0,1-.17,1.09c-.18.17-.39.32-.53.43l.88.93c.17-.18.34-.37.52-.55a.81.81,0,0,1,1.05-.15,11.44,11.44,0,0,0,1.14.48.78.78,0,0,1,.63.84c0,.26,0,.52,0,.77h1.2v-.78a.8.8,0,0,1,.61-.83c.4-.14.8-.31,1.18-.48a.79.79,0,0,1,1,.16c.18.18.36.38.49.52l.89-.86c-.17-.16-.37-.33-.54-.51a.79.79,0,0,1-.16-1,9.85,9.85,0,0,0,.47-1.12.84.84,0,0,1,.92-.67H249v-1.18h-.75a.81.81,0,0,1-.88-.63c-.14-.4-.31-.79-.49-1.18a.81.81,0,0,1,.16-1l.55-.52-.87-.88c-.16.17-.32.36-.49.53a.8.8,0,0,1-1.09.17,11.55,11.55,0,0,0-1.15-.47.8.8,0,0,1-.61-.83v-.8h-1.2c0,.28,0,.54,0,.81a.77.77,0,0,1-.59.81q-.62.24-1.23.51a.78.78,0,0,1-1-.14l-.54-.59-.89.86c.2.19.4.37.59.57a.79.79,0,0,1,.14,1q-.27.62-.51,1.23a.8.8,0,0,1-.81.6h-.8Zm.84-2.47H224.6a1.1,1.1,0,0,0-1.25,1.25v15h1v-.4q0-6.71,0-13.4a1.15,1.15,0,0,1,1.29-1.3h10c.25-.7.38-.79,1.11-.79H237C237.26,138.32,237.43,138.24,237.43,137.9Zm3,21.14h-4.92l-.34,3.78h5.6Zm12.19-4.86v-15a1.11,1.11,0,0,0-1.25-1.25h-3.22c0,.3.12.41.41.38a3.17,3.17,0,0,1,.69,0c.44.06.62.37.69.78h.54a1.64,1.64,0,0,1,.32.05,1.16,1.16,0,0,1,.84,1.26v13.8Z"/>
        <path class="a2b89823-8548-4efc-aa3e-a78a7dedc922" d="M238,156.15c.33,0,.67,0,1,0a.45.45,0,0,1,.48.44.46.46,0,0,1-.48.47h-2a.46.46,0,1,1,0-.91Z"/>
        <path class="a2b89823-8548-4efc-aa3e-a78a7dedc922" d="M229.58,151.42a4.28,4.28,0,0,1-.4.45.67.67,0,0,1-1,0c-.28-.25-.54-.52-.8-.79a.69.69,0,0,1,0-1,4.83,4.83,0,0,1,.42-.37c-.12-.29-.21-.54-.32-.77a.3.3,0,0,0-.2-.14,1,1,0,0,0-.24,0c-.68,0-.91-.24-.92-.91,0-.3,0-.59,0-.89a.67.67,0,0,1,.75-.72.64.64,0,0,0,.76-.5.53.53,0,0,0-.15-.69c-.46-.43-.45-.79,0-1.24l.65-.64a.66.66,0,0,1,1,0,.66.66,0,0,0,.94.19c.25-.13.36-.24.35-.53,0-.71.22-.93.94-.93h.82a.67.67,0,0,1,.74.74.65.65,0,0,0,.54.79.48.48,0,0,0,.62-.13c.48-.5.81-.49,1.3,0l.6.6a.66.66,0,0,1,0,1,.65.65,0,0,0-.19.92c.13.27.24.38.55.36.67,0,.91.23.91.9,0,.29,0,.57,0,.86,0,.47-.27.79-.75.75a.65.65,0,0,0-.77.53.49.49,0,0,0,.13.64c.5.46.49.8,0,1.28-.2.21-.41.42-.62.62a.66.66,0,0,1-1,0,.62.62,0,0,0-.94-.17,1.6,1.6,0,0,1-.35.14c0,.19,0,.37,0,.55a.7.7,0,0,1-.74.75c-.35,0-.7,0-1.06,0s-.74-.28-.7-.71a.65.65,0,0,0-.58-.82A2.12,2.12,0,0,1,229.58,151.42Zm5.72-.89c-.11-.09-.22-.18-.32-.28a.74.74,0,0,1-.15-1,5.32,5.32,0,0,0,.32-.78.73.73,0,0,1,.81-.59h.44v-.7H236a.74.74,0,0,1-.82-.61c-.1-.28-.23-.56-.35-.83a.71.71,0,0,1,.13-.89,3.65,3.65,0,0,1,.43-.31l-.58-.57c-.1.11-.18.23-.28.32a.74.74,0,0,1-1,.15c-.26-.12-.53-.22-.81-.32a.73.73,0,0,1-.55-.75v-.51h-.35l-.34,0v.49a.75.75,0,0,1-.58.76,8.51,8.51,0,0,0-.83.34.71.71,0,0,1-1-.15,2.74,2.74,0,0,1-.27-.35l-.56.56a4.38,4.38,0,0,1,.34.29.71.71,0,0,1,.14,1q-.19.42-.36.87a.69.69,0,0,1-.72.53h-.5v.7h.44a.73.73,0,0,1,.8.59,5.77,5.77,0,0,0,.34.81.71.71,0,0,1-.16,1,1.53,1.53,0,0,1-.31.21l.5.63c.12-.13.2-.24.29-.33a.72.72,0,0,1,1-.15,8.26,8.26,0,0,0,.82.33.71.71,0,0,1,.55.71v.53H232a2.65,2.65,0,0,1,.24-1c.18-.23.58-.28.86-.45.65-.42,1.21-.42,1.66.32Z"/>
        <path class="a2b89823-8548-4efc-aa3e-a78a7dedc922" d="M239.27,139.89a3.6,3.6,0,0,1,.52-2c.2-.32.44-.41.7-.26s.27.41.08.72a2.64,2.64,0,1,0,2.63-1.19,4.38,4.38,0,0,0-1,0c-.36,0-.6,0-.66-.31s.09-.5.46-.59a3.54,3.54,0,1,1,1.31,6.94A3.51,3.51,0,0,1,239.27,139.89Z"/>
        <path class="a2b89823-8548-4efc-aa3e-a78a7dedc922" d="M244.64,139.79a1.84,1.84,0,1,1-1.82-1.85A1.85,1.85,0,0,1,244.64,139.79Zm-.92,0a.93.93,0,0,0-.88-1,.93.93,0,0,0-.07,1.86A.92.92,0,0,0,243.72,139.82Z"/>
        <path class="a2b89823-8548-4efc-aa3e-a78a7dedc922" d="M229.34,147.54a2.42,2.42,0,1,1,2.43,2.4A2.43,2.43,0,0,1,229.34,147.54Zm3.92,0a1.52,1.52,0,0,0-1.5-1.51,1.49,1.49,0,0,0-1.5,1.5,1.51,1.51,0,0,0,1.47,1.51A1.53,1.53,0,0,0,233.26,147.53Z"/>
      </g>
    </g>
    <path class="a2b89823-8548-4efc-aa3e-a78a7dedc922" d="M91.12,258.05c-1,.53-1.3.19-.71-.76L91.82,255a3.79,3.79,0,0,0,.07-3.48l-1.56-2.78c-.54-1-.18-1.33.79-.81l7.56,4.09c1,.52,1,1.39,0,1.92Z"/>
    <path class="a2b89823-8548-4efc-aa3e-a78a7dedc922" d="M91.12,122.05c-1,.53-1.3.19-.71-.76L91.82,119a3.79,3.79,0,0,0,.07-3.48l-1.56-2.78c-.54-1-.18-1.33.79-.81l7.56,4.09c1,.52,1,1.39,0,1.92Z"/>
    <path class="a2b89823-8548-4efc-aa3e-a78a7dedc922" d="M195.13,169.34c-1,.53-1.3.19-.71-.76l1.4-2.26a3.78,3.78,0,0,0,.08-3.48l-1.56-2.78c-.54-1-.19-1.33.79-.8l7.56,4.08c1,.53,1,1.39,0,1.92Z"/>
    <path class="a2b89823-8548-4efc-aa3e-a78a7dedc922" d="M420.13,41.34c-1,.53-1.3.19-.71-.76l1.4-2.26a3.78,3.78,0,0,0,.08-3.48l-1.56-2.78c-.54-1-.19-1.33.79-.8l7.56,4.08c1,.53,1,1.39,0,1.92Z"/>
    <path class="a2b89823-8548-4efc-aa3e-a78a7dedc922" d="M420.13,127.34c-1,.53-1.3.19-.71-.76l1.4-2.26a3.78,3.78,0,0,0,.08-3.48l-1.56-2.78c-.54-1-.19-1.33.79-.8l7.56,4.08c1,.53,1,1.39,0,1.92Z"/>
    <path class="a2b89823-8548-4efc-aa3e-a78a7dedc922" d="M420.13,209.34c-1,.53-1.3.19-.71-.76l1.4-2.26a3.78,3.78,0,0,0,.08-3.48l-1.56-2.78c-.54-1-.19-1.33.79-.8l7.56,4.08c1,.53,1,1.39,0,1.92Z"/>
    <path class="a2b89823-8548-4efc-aa3e-a78a7dedc922" d="M420.13,294.34c-1,.53-1.3.19-.71-.76l1.4-2.26a3.78,3.78,0,0,0,.08-3.48l-1.56-2.78c-.54-1-.19-1.33.79-.8l7.56,4.08c1,.53,1,1.39,0,1.92Z"/>
    <circle class="a2b89823-8548-4efc-aa3e-a78a7dedc922" cx="72.5" cy="72" r="2.5"/>
    <circle class="a2b89823-8548-4efc-aa3e-a78a7dedc922" cx="72.5" cy="164.01" r="2.5"/>
    <circle class="a2b89823-8548-4efc-aa3e-a78a7dedc922" cx="72.5" cy="253.01" r="2.5"/>
    <circle class="a2b89823-8548-4efc-aa3e-a78a7dedc922" cx="172.5" cy="253.01" r="2.5"/>
    <circle class="a2b89823-8548-4efc-aa3e-a78a7dedc922" cx="172.5" cy="117.01" r="2.5"/>
    <circle class="a2b89823-8548-4efc-aa3e-a78a7dedc922" cx="378.5" cy="131.01" r="2.5"/>
    <circle class="a2b89823-8548-4efc-aa3e-a78a7dedc922" cx="378.5" cy="163.01" r="2.5"/>
    <circle class="a2b89823-8548-4efc-aa3e-a78a7dedc922" cx="378.5" cy="196.01" r="2.5"/>
    <g>
      <rect class="f000432f-1927-4529-93cd-8c8c6845fb1b" x="203" y="87.51" width="178" height="17" rx="8.5"/>
      <text class="b334e75e-9e3a-4ee7-8516-795d021cb320" transform="translate(219.95 98.76)">MiRLE Intelligent-Quality Virtual Metrology</text>
      <rect class="f000432f-1927-4529-93cd-8c8c6845fb1b" x="288.5" y="100.51" width="7" height="7" transform="translate(572.02 -28.92) rotate(135)"/>
    </g>
  </g>
</svg>
